<svg xmlns="http://www.w3.org/2000/svg" version="1.1" xmlns:xlink="http://www.w3.org/1999/xlink" xmlns:svgjs="http://svgjs.dev/svgjs" viewBox="0 0 800 800" opacity="0.58" width="800" height="800"><g stroke-width="3.75" stroke="hsl(261, 60%, 38%)" fill="none"><circle r="4.605263157894737" cx="0" cy="0" fill="hsl(261, 60%, 38%)" stroke="none"></circle><circle r="4.605263157894737" cx="53.333333333333336" cy="0" fill="hsl(261, 60%, 38%)" stroke="none"></circle><circle r="4.605263157894737" cx="106.66666666666667" cy="0" fill="hsl(261, 60%, 38%)" stroke="none"></circle><circle r="4.605263157894737" cx="160" cy="0" fill="hsl(261, 60%, 38%)" stroke="none"></circle><circle r="4.605263157894737" cx="213.33333333333334" cy="0" fill="hsl(261, 60%, 38%)" stroke="none"></circle><circle r="4.605263157894737" cx="266.6666666666667" cy="0" fill="hsl(261, 60%, 38%)" stroke="none"></circle><circle r="4.605263157894737" cx="320" cy="0" fill="hsl(261, 60%, 38%)" stroke="none"></circle><circle r="4.605263157894737" cx="373.3333333333333" cy="0" fill="hsl(261, 60%, 38%)" stroke="none"></circle><circle r="4.605263157894737" cx="426.66666666666663" cy="0" fill="hsl(261, 60%, 38%)" stroke="none"></circle><circle r="4.605263157894737" cx="479.99999999999994" cy="0" fill="hsl(261, 60%, 38%)" stroke="none"></circle><circle r="4.605263157894737" cx="533.3333333333333" cy="0" fill="hsl(261, 60%, 38%)" stroke="none"></circle><circle r="4.605263157894737" cx="586.6666666666666" cy="0" fill="hsl(261, 60%, 38%)" stroke="none"></circle><circle r="4.605263157894737" cx="640" cy="0" fill="hsl(261, 60%, 38%)" stroke="none"></circle><circle r="4.605263157894737" cx="693.3333333333334" cy="0" fill="hsl(261, 60%, 38%)" stroke="none"></circle><circle r="4.605263157894737" cx="746.6666666666667" cy="0" fill="hsl(261, 60%, 38%)" stroke="none"></circle><circle r="4.605263157894737" cx="800.0000000000001" cy="0" fill="hsl(261, 60%, 38%)" stroke="none"></circle><circle r="4.605263157894737" cx="0" cy="66.66666666666667" fill="hsl(261, 60%, 38%)" stroke="none"></circle><circle r="4.605263157894737" cx="53.333333333333336" cy="66.66666666666667" fill="hsl(261, 60%, 38%)" stroke="none"></circle><circle r="4.605263157894737" cx="106.66666666666667" cy="66.66666666666667" fill="hsl(261, 60%, 38%)" stroke="none"></circle><circle r="4.605263157894737" cx="160" cy="66.66666666666667" fill="hsl(261, 60%, 38%)" stroke="none"></circle><circle r="4.605263157894737" cx="213.33333333333334" cy="66.66666666666667" fill="hsl(261, 60%, 38%)" stroke="none"></circle><circle r="4.605263157894737" cx="266.6666666666667" cy="66.66666666666667" fill="hsl(261, 60%, 38%)" stroke="none"></circle><circle r="4.605263157894737" cx="320" cy="66.66666666666667" fill="hsl(261, 60%, 38%)" stroke="none"></circle><circle r="4.605263157894737" cx="373.3333333333333" cy="66.66666666666667" fill="hsl(261, 60%, 38%)" stroke="none"></circle><circle r="4.605263157894737" cx="426.66666666666663" cy="66.66666666666667" fill="hsl(261, 60%, 38%)" stroke="none"></circle><circle r="4.605263157894737" cx="479.99999999999994" cy="66.66666666666667" fill="hsl(261, 60%, 38%)" stroke="none"></circle><circle r="4.605263157894737" cx="533.3333333333333" cy="66.66666666666667" fill="hsl(261, 60%, 38%)" stroke="none"></circle><circle r="4.605263157894737" cx="586.6666666666666" cy="66.66666666666667" fill="hsl(261, 60%, 38%)" stroke="none"></circle><circle r="4.605263157894737" cx="640" cy="66.66666666666667" fill="hsl(261, 60%, 38%)" stroke="none"></circle><circle r="4.605263157894737" cx="693.3333333333334" cy="66.66666666666667" fill="hsl(261, 60%, 38%)" stroke="none"></circle><circle r="4.605263157894737" cx="746.6666666666667" cy="66.66666666666667" fill="hsl(261, 60%, 38%)" stroke="none"></circle><circle r="4.605263157894737" cx="800.0000000000001" cy="66.66666666666667" fill="hsl(261, 60%, 38%)" stroke="none"></circle><circle r="4.605263157894737" cx="0" cy="133.33333333333334" fill="hsl(261, 60%, 38%)" stroke="none"></circle><circle r="4.605263157894737" cx="53.333333333333336" cy="133.33333333333334" fill="hsl(261, 60%, 38%)" stroke="none"></circle><circle r="4.605263157894737" cx="106.66666666666667" cy="133.33333333333334" fill="hsl(261, 60%, 38%)" stroke="none"></circle><circle r="4.605263157894737" cx="160" cy="133.33333333333334" fill="hsl(261, 60%, 38%)" stroke="none"></circle><circle r="4.605263157894737" cx="213.33333333333334" cy="133.33333333333334" fill="hsl(261, 60%, 38%)" stroke="none"></circle><circle r="4.605263157894737" cx="266.6666666666667" cy="133.33333333333334" fill="hsl(261, 60%, 38%)" stroke="none"></circle><circle r="4.605263157894737" cx="320" cy="133.33333333333334" fill="hsl(261, 60%, 38%)" stroke="none"></circle><circle r="4.605263157894737" cx="373.3333333333333" cy="133.33333333333334" fill="hsl(261, 60%, 38%)" stroke="none"></circle><circle r="4.605263157894737" cx="426.66666666666663" cy="133.33333333333334" fill="hsl(261, 60%, 38%)" stroke="none"></circle><circle r="4.605263157894737" cx="479.99999999999994" cy="133.33333333333334" fill="hsl(261, 60%, 38%)" stroke="none"></circle><circle r="4.605263157894737" cx="533.3333333333333" cy="133.33333333333334" fill="hsl(261, 60%, 38%)" stroke="none"></circle><circle r="4.605263157894737" cx="586.6666666666666" cy="133.33333333333334" fill="hsl(261, 60%, 38%)" stroke="none"></circle><circle r="4.605263157894737" cx="640" cy="133.33333333333334" fill="hsl(261, 60%, 38%)" stroke="none"></circle><circle r="4.605263157894737" cx="693.3333333333334" cy="133.33333333333334" fill="hsl(261, 60%, 38%)" stroke="none"></circle><circle r="4.605263157894737" cx="746.6666666666667" cy="133.33333333333334" fill="hsl(261, 60%, 38%)" stroke="none"></circle><circle r="4.605263157894737" cx="800.0000000000001" cy="133.33333333333334" fill="hsl(261, 60%, 38%)" stroke="none"></circle><circle r="4.605263157894737" cx="0" cy="200" fill="hsl(261, 60%, 38%)" stroke="none"></circle><circle r="4.605263157894737" cx="53.333333333333336" cy="200" fill="hsl(261, 60%, 38%)" stroke="none"></circle><circle r="4.605263157894737" cx="106.66666666666667" cy="200" fill="hsl(261, 60%, 38%)" stroke="none"></circle><circle r="4.605263157894737" cx="160" cy="200" fill="hsl(261, 60%, 38%)" stroke="none"></circle><circle r="4.605263157894737" cx="213.33333333333334" cy="200" fill="hsl(261, 60%, 38%)" stroke="none"></circle><circle r="4.605263157894737" cx="266.6666666666667" cy="200" fill="hsl(261, 60%, 38%)" stroke="none"></circle><circle r="4.605263157894737" cx="320" cy="200" fill="hsl(261, 60%, 38%)" stroke="none"></circle><circle r="4.605263157894737" cx="373.3333333333333" cy="200" fill="hsl(261, 60%, 38%)" stroke="none"></circle><circle r="4.605263157894737" cx="426.66666666666663" cy="200" fill="hsl(261, 60%, 38%)" stroke="none"></circle><circle r="4.605263157894737" cx="479.99999999999994" cy="200" fill="hsl(261, 60%, 38%)" stroke="none"></circle><circle r="4.605263157894737" cx="533.3333333333333" cy="200" fill="hsl(261, 60%, 38%)" stroke="none"></circle><circle r="4.605263157894737" cx="586.6666666666666" cy="200" fill="hsl(261, 60%, 38%)" stroke="none"></circle><circle r="4.605263157894737" cx="640" cy="200" fill="hsl(261, 60%, 38%)" stroke="none"></circle><circle r="4.605263157894737" cx="693.3333333333334" cy="200" fill="hsl(261, 60%, 38%)" stroke="none"></circle><circle r="4.605263157894737" cx="746.6666666666667" cy="200" fill="hsl(261, 60%, 38%)" stroke="none"></circle><circle r="4.605263157894737" cx="800.0000000000001" cy="200" fill="hsl(261, 60%, 38%)" stroke="none"></circle><circle r="4.605263157894737" cx="0" cy="266.6666666666667" fill="hsl(261, 60%, 38%)" stroke="none"></circle><circle r="4.605263157894737" cx="53.333333333333336" cy="266.6666666666667" fill="hsl(261, 60%, 38%)" stroke="none"></circle><circle r="4.605263157894737" cx="106.66666666666667" cy="266.6666666666667" fill="hsl(261, 60%, 38%)" stroke="none"></circle><circle r="4.605263157894737" cx="160" cy="266.6666666666667" fill="hsl(261, 60%, 38%)" stroke="none"></circle><circle r="4.605263157894737" cx="213.33333333333334" cy="266.6666666666667" fill="hsl(261, 60%, 38%)" stroke="none"></circle><circle r="4.605263157894737" cx="266.6666666666667" cy="266.6666666666667" fill="hsl(261, 60%, 38%)" stroke="none"></circle><circle r="4.605263157894737" cx="320" cy="266.6666666666667" fill="hsl(261, 60%, 38%)" stroke="none"></circle><circle r="4.605263157894737" cx="373.3333333333333" cy="266.6666666666667" fill="hsl(261, 60%, 38%)" stroke="none"></circle><circle r="4.605263157894737" cx="426.66666666666663" cy="266.6666666666667" fill="hsl(261, 60%, 38%)" stroke="none"></circle><circle r="4.605263157894737" cx="479.99999999999994" cy="266.6666666666667" fill="hsl(261, 60%, 38%)" stroke="none"></circle><circle r="4.605263157894737" cx="533.3333333333333" cy="266.6666666666667" fill="hsl(261, 60%, 38%)" stroke="none"></circle><circle r="4.605263157894737" cx="586.6666666666666" cy="266.6666666666667" fill="hsl(261, 60%, 38%)" stroke="none"></circle><circle r="4.605263157894737" cx="640" cy="266.6666666666667" fill="hsl(261, 60%, 38%)" stroke="none"></circle><circle r="4.605263157894737" cx="693.3333333333334" cy="266.6666666666667" fill="hsl(261, 60%, 38%)" stroke="none"></circle><circle r="4.605263157894737" cx="746.6666666666667" cy="266.6666666666667" fill="hsl(261, 60%, 38%)" stroke="none"></circle><circle r="4.605263157894737" cx="800.0000000000001" cy="266.6666666666667" fill="hsl(261, 60%, 38%)" stroke="none"></circle><circle r="4.605263157894737" cx="0" cy="333.33333333333337" fill="hsl(261, 60%, 38%)" stroke="none"></circle><circle r="4.605263157894737" cx="53.333333333333336" cy="333.33333333333337" fill="hsl(261, 60%, 38%)" stroke="none"></circle><circle r="4.605263157894737" cx="106.66666666666667" cy="333.33333333333337" fill="hsl(261, 60%, 38%)" stroke="none"></circle><circle r="4.605263157894737" cx="160" cy="333.33333333333337" fill="hsl(261, 60%, 38%)" stroke="none"></circle><circle r="4.605263157894737" cx="213.33333333333334" cy="333.33333333333337" fill="hsl(261, 60%, 38%)" stroke="none"></circle><circle r="4.605263157894737" cx="266.6666666666667" cy="333.33333333333337" fill="hsl(261, 60%, 38%)" stroke="none"></circle><circle r="4.605263157894737" cx="320" cy="333.33333333333337" fill="hsl(261, 60%, 38%)" stroke="none"></circle><circle r="4.605263157894737" cx="373.3333333333333" cy="333.33333333333337" fill="hsl(261, 60%, 38%)" stroke="none"></circle><circle r="4.605263157894737" cx="426.66666666666663" cy="333.33333333333337" fill="hsl(261, 60%, 38%)" stroke="none"></circle><circle r="4.605263157894737" cx="479.99999999999994" cy="333.33333333333337" fill="hsl(261, 60%, 38%)" stroke="none"></circle><circle r="4.605263157894737" cx="533.3333333333333" cy="333.33333333333337" fill="hsl(261, 60%, 38%)" stroke="none"></circle><circle r="4.605263157894737" cx="586.6666666666666" cy="333.33333333333337" fill="hsl(261, 60%, 38%)" stroke="none"></circle><circle r="4.605263157894737" cx="640" cy="333.33333333333337" fill="hsl(261, 60%, 38%)" stroke="none"></circle><circle r="4.605263157894737" cx="693.3333333333334" cy="333.33333333333337" fill="hsl(261, 60%, 38%)" stroke="none"></circle><circle r="4.605263157894737" cx="746.6666666666667" cy="333.33333333333337" fill="hsl(261, 60%, 38%)" stroke="none"></circle><circle r="4.605263157894737" cx="800.0000000000001" cy="333.33333333333337" fill="hsl(261, 60%, 38%)" stroke="none"></circle><circle r="4.605263157894737" cx="0" cy="400.00000000000006" fill="hsl(261, 60%, 38%)" stroke="none"></circle><circle r="4.605263157894737" cx="53.333333333333336" cy="400.00000000000006" fill="hsl(261, 60%, 38%)" stroke="none"></circle><circle r="4.605263157894737" cx="106.66666666666667" cy="400.00000000000006" fill="hsl(261, 60%, 38%)" stroke="none"></circle><circle r="4.605263157894737" cx="160" cy="400.00000000000006" fill="hsl(261, 60%, 38%)" stroke="none"></circle><circle r="4.605263157894737" cx="213.33333333333334" cy="400.00000000000006" fill="hsl(261, 60%, 38%)" stroke="none"></circle><circle r="4.605263157894737" cx="266.6666666666667" cy="400.00000000000006" fill="hsl(261, 60%, 38%)" stroke="none"></circle><circle r="4.605263157894737" cx="320" cy="400.00000000000006" fill="hsl(261, 60%, 38%)" stroke="none"></circle><circle r="4.605263157894737" cx="373.3333333333333" cy="400.00000000000006" fill="hsl(261, 60%, 38%)" stroke="none"></circle><circle r="4.605263157894737" cx="426.66666666666663" cy="400.00000000000006" fill="hsl(261, 60%, 38%)" stroke="none"></circle><circle r="4.605263157894737" cx="479.99999999999994" cy="400.00000000000006" fill="hsl(261, 60%, 38%)" stroke="none"></circle><circle r="4.605263157894737" cx="533.3333333333333" cy="400.00000000000006" fill="hsl(261, 60%, 38%)" stroke="none"></circle><circle r="4.605263157894737" cx="586.6666666666666" cy="400.00000000000006" fill="hsl(261, 60%, 38%)" stroke="none"></circle><circle r="4.605263157894737" cx="640" cy="400.00000000000006" fill="hsl(261, 60%, 38%)" stroke="none"></circle><circle r="4.605263157894737" cx="693.3333333333334" cy="400.00000000000006" fill="hsl(261, 60%, 38%)" stroke="none"></circle><circle r="4.605263157894737" cx="746.6666666666667" cy="400.00000000000006" fill="hsl(261, 60%, 38%)" stroke="none"></circle><circle r="4.605263157894737" cx="800.0000000000001" cy="400.00000000000006" fill="hsl(261, 60%, 38%)" stroke="none"></circle><circle r="4.605263157894737" cx="0" cy="466.66666666666674" fill="hsl(261, 60%, 38%)" stroke="none"></circle><circle r="4.605263157894737" cx="53.333333333333336" cy="466.66666666666674" fill="hsl(261, 60%, 38%)" stroke="none"></circle><circle r="4.605263157894737" cx="106.66666666666667" cy="466.66666666666674" fill="hsl(261, 60%, 38%)" stroke="none"></circle><circle r="4.605263157894737" cx="160" cy="466.66666666666674" fill="hsl(261, 60%, 38%)" stroke="none"></circle><circle r="4.605263157894737" cx="213.33333333333334" cy="466.66666666666674" fill="hsl(261, 60%, 38%)" stroke="none"></circle><circle r="4.605263157894737" cx="266.6666666666667" cy="466.66666666666674" fill="hsl(261, 60%, 38%)" stroke="none"></circle><circle r="4.605263157894737" cx="320" cy="466.66666666666674" fill="hsl(261, 60%, 38%)" stroke="none"></circle><circle r="4.605263157894737" cx="373.3333333333333" cy="466.66666666666674" fill="hsl(261, 60%, 38%)" stroke="none"></circle><circle r="4.605263157894737" cx="426.66666666666663" cy="466.66666666666674" fill="hsl(261, 60%, 38%)" stroke="none"></circle><circle r="4.605263157894737" cx="479.99999999999994" cy="466.66666666666674" fill="hsl(261, 60%, 38%)" stroke="none"></circle><circle r="4.605263157894737" cx="533.3333333333333" cy="466.66666666666674" fill="hsl(261, 60%, 38%)" stroke="none"></circle><circle r="4.605263157894737" cx="586.6666666666666" cy="466.66666666666674" fill="hsl(261, 60%, 38%)" stroke="none"></circle><circle r="4.605263157894737" cx="640" cy="466.66666666666674" fill="hsl(261, 60%, 38%)" stroke="none"></circle><circle r="4.605263157894737" cx="693.3333333333334" cy="466.66666666666674" fill="hsl(261, 60%, 38%)" stroke="none"></circle><circle r="4.605263157894737" cx="746.6666666666667" cy="466.66666666666674" fill="hsl(261, 60%, 38%)" stroke="none"></circle><circle r="4.605263157894737" cx="800.0000000000001" cy="466.66666666666674" fill="hsl(261, 60%, 38%)" stroke="none"></circle><circle r="4.605263157894737" cx="0" cy="533.3333333333334" fill="hsl(261, 60%, 38%)" stroke="none"></circle><circle r="4.605263157894737" cx="53.333333333333336" cy="533.3333333333334" fill="hsl(261, 60%, 38%)" stroke="none"></circle><circle r="4.605263157894737" cx="106.66666666666667" cy="533.3333333333334" fill="hsl(261, 60%, 38%)" stroke="none"></circle><circle r="4.605263157894737" cx="160" cy="533.3333333333334" fill="hsl(261, 60%, 38%)" stroke="none"></circle><circle r="4.605263157894737" cx="213.33333333333334" cy="533.3333333333334" fill="hsl(261, 60%, 38%)" stroke="none"></circle><circle r="4.605263157894737" cx="266.6666666666667" cy="533.3333333333334" fill="hsl(261, 60%, 38%)" stroke="none"></circle><circle r="4.605263157894737" cx="320" cy="533.3333333333334" fill="hsl(261, 60%, 38%)" stroke="none"></circle><circle r="4.605263157894737" cx="373.3333333333333" cy="533.3333333333334" fill="hsl(261, 60%, 38%)" stroke="none"></circle><circle r="4.605263157894737" cx="426.66666666666663" cy="533.3333333333334" fill="hsl(261, 60%, 38%)" stroke="none"></circle><circle r="4.605263157894737" cx="479.99999999999994" cy="533.3333333333334" fill="hsl(261, 60%, 38%)" stroke="none"></circle><circle r="4.605263157894737" cx="533.3333333333333" cy="533.3333333333334" fill="hsl(261, 60%, 38%)" stroke="none"></circle><circle r="4.605263157894737" cx="586.6666666666666" cy="533.3333333333334" fill="hsl(261, 60%, 38%)" stroke="none"></circle><circle r="4.605263157894737" cx="640" cy="533.3333333333334" fill="hsl(261, 60%, 38%)" stroke="none"></circle><circle r="4.605263157894737" cx="693.3333333333334" cy="533.3333333333334" fill="hsl(261, 60%, 38%)" stroke="none"></circle><circle r="4.605263157894737" cx="746.6666666666667" cy="533.3333333333334" fill="hsl(261, 60%, 38%)" stroke="none"></circle><circle r="4.605263157894737" cx="800.0000000000001" cy="533.3333333333334" fill="hsl(261, 60%, 38%)" stroke="none"></circle><circle r="4.605263157894737" cx="0" cy="600" fill="hsl(261, 60%, 38%)" stroke="none"></circle><circle r="4.605263157894737" cx="53.333333333333336" cy="600" fill="hsl(261, 60%, 38%)" stroke="none"></circle><circle r="4.605263157894737" cx="106.66666666666667" cy="600" fill="hsl(261, 60%, 38%)" stroke="none"></circle><circle r="4.605263157894737" cx="160" cy="600" fill="hsl(261, 60%, 38%)" stroke="none"></circle><circle r="4.605263157894737" cx="213.33333333333334" cy="600" fill="hsl(261, 60%, 38%)" stroke="none"></circle><circle r="4.605263157894737" cx="266.6666666666667" cy="600" fill="hsl(261, 60%, 38%)" stroke="none"></circle><circle r="4.605263157894737" cx="320" cy="600" fill="hsl(261, 60%, 38%)" stroke="none"></circle><circle r="4.605263157894737" cx="373.3333333333333" cy="600" fill="hsl(261, 60%, 38%)" stroke="none"></circle><circle r="4.605263157894737" cx="426.66666666666663" cy="600" fill="hsl(261, 60%, 38%)" stroke="none"></circle><circle r="4.605263157894737" cx="479.99999999999994" cy="600" fill="hsl(261, 60%, 38%)" stroke="none"></circle><circle r="4.605263157894737" cx="533.3333333333333" cy="600" fill="hsl(261, 60%, 38%)" stroke="none"></circle><circle r="4.605263157894737" cx="586.6666666666666" cy="600" fill="hsl(261, 60%, 38%)" stroke="none"></circle><circle r="4.605263157894737" cx="640" cy="600" fill="hsl(261, 60%, 38%)" stroke="none"></circle><circle r="4.605263157894737" cx="693.3333333333334" cy="600" fill="hsl(261, 60%, 38%)" stroke="none"></circle><circle r="4.605263157894737" cx="746.6666666666667" cy="600" fill="hsl(261, 60%, 38%)" stroke="none"></circle><circle r="4.605263157894737" cx="800.0000000000001" cy="600" fill="hsl(261, 60%, 38%)" stroke="none"></circle><circle r="4.605263157894737" cx="0" cy="666.6666666666666" fill="hsl(261, 60%, 38%)" stroke="none"></circle><circle r="4.605263157894737" cx="53.333333333333336" cy="666.6666666666666" fill="hsl(261, 60%, 38%)" stroke="none"></circle><circle r="4.605263157894737" cx="106.66666666666667" cy="666.6666666666666" fill="hsl(261, 60%, 38%)" stroke="none"></circle><circle r="4.605263157894737" cx="160" cy="666.6666666666666" fill="hsl(261, 60%, 38%)" stroke="none"></circle><circle r="4.605263157894737" cx="213.33333333333334" cy="666.6666666666666" fill="hsl(261, 60%, 38%)" stroke="none"></circle><circle r="4.605263157894737" cx="266.6666666666667" cy="666.6666666666666" fill="hsl(261, 60%, 38%)" stroke="none"></circle><circle r="4.605263157894737" cx="320" cy="666.6666666666666" fill="hsl(261, 60%, 38%)" stroke="none"></circle><circle r="4.605263157894737" cx="373.3333333333333" cy="666.6666666666666" fill="hsl(261, 60%, 38%)" stroke="none"></circle><circle r="4.605263157894737" cx="426.66666666666663" cy="666.6666666666666" fill="hsl(261, 60%, 38%)" stroke="none"></circle><circle r="4.605263157894737" cx="479.99999999999994" cy="666.6666666666666" fill="hsl(261, 60%, 38%)" stroke="none"></circle><circle r="4.605263157894737" cx="533.3333333333333" cy="666.6666666666666" fill="hsl(261, 60%, 38%)" stroke="none"></circle><circle r="4.605263157894737" cx="586.6666666666666" cy="666.6666666666666" fill="hsl(261, 60%, 38%)" stroke="none"></circle><circle r="4.605263157894737" cx="640" cy="666.6666666666666" fill="hsl(261, 60%, 38%)" stroke="none"></circle><circle r="4.605263157894737" cx="693.3333333333334" cy="666.6666666666666" fill="hsl(261, 60%, 38%)" stroke="none"></circle><circle r="4.605263157894737" cx="746.6666666666667" cy="666.6666666666666" fill="hsl(261, 60%, 38%)" stroke="none"></circle><circle r="4.605263157894737" cx="800.0000000000001" cy="666.6666666666666" fill="hsl(261, 60%, 38%)" stroke="none"></circle><circle r="4.605263157894737" cx="0" cy="733.3333333333333" fill="hsl(261, 60%, 38%)" stroke="none"></circle><circle r="4.605263157894737" cx="53.333333333333336" cy="733.3333333333333" fill="hsl(261, 60%, 38%)" stroke="none"></circle><circle r="4.605263157894737" cx="106.66666666666667" cy="733.3333333333333" fill="hsl(261, 60%, 38%)" stroke="none"></circle><circle r="4.605263157894737" cx="160" cy="733.3333333333333" fill="hsl(261, 60%, 38%)" stroke="none"></circle><circle r="4.605263157894737" cx="213.33333333333334" cy="733.3333333333333" fill="hsl(261, 60%, 38%)" stroke="none"></circle><circle r="4.605263157894737" cx="266.6666666666667" cy="733.3333333333333" fill="hsl(261, 60%, 38%)" stroke="none"></circle><circle r="4.605263157894737" cx="320" cy="733.3333333333333" fill="hsl(261, 60%, 38%)" stroke="none"></circle><circle r="4.605263157894737" cx="373.3333333333333" cy="733.3333333333333" fill="hsl(261, 60%, 38%)" stroke="none"></circle><circle r="4.605263157894737" cx="426.66666666666663" cy="733.3333333333333" fill="hsl(261, 60%, 38%)" stroke="none"></circle><circle r="4.605263157894737" cx="479.99999999999994" cy="733.3333333333333" fill="hsl(261, 60%, 38%)" stroke="none"></circle><circle r="4.605263157894737" cx="533.3333333333333" cy="733.3333333333333" fill="hsl(261, 60%, 38%)" stroke="none"></circle><circle r="4.605263157894737" cx="586.6666666666666" cy="733.3333333333333" fill="hsl(261, 60%, 38%)" stroke="none"></circle><circle r="4.605263157894737" cx="640" cy="733.3333333333333" fill="hsl(261, 60%, 38%)" stroke="none"></circle><circle r="4.605263157894737" cx="693.3333333333334" cy="733.3333333333333" fill="hsl(261, 60%, 38%)" stroke="none"></circle><circle r="4.605263157894737" cx="746.6666666666667" cy="733.3333333333333" fill="hsl(261, 60%, 38%)" stroke="none"></circle><circle r="4.605263157894737" cx="800.0000000000001" cy="733.3333333333333" fill="hsl(261, 60%, 38%)" stroke="none"></circle><circle r="4.605263157894737" cx="0" cy="799.9999999999999" fill="hsl(261, 60%, 38%)" stroke="none"></circle><circle r="4.605263157894737" cx="53.333333333333336" cy="799.9999999999999" fill="hsl(261, 60%, 38%)" stroke="none"></circle><circle r="4.605263157894737" cx="106.66666666666667" cy="799.9999999999999" fill="hsl(261, 60%, 38%)" stroke="none"></circle><circle r="4.605263157894737" cx="160" cy="799.9999999999999" fill="hsl(261, 60%, 38%)" stroke="none"></circle><circle r="4.605263157894737" cx="213.33333333333334" cy="799.9999999999999" fill="hsl(261, 60%, 38%)" stroke="none"></circle><circle r="4.605263157894737" cx="266.6666666666667" cy="799.9999999999999" fill="hsl(261, 60%, 38%)" stroke="none"></circle><circle r="4.605263157894737" cx="320" cy="799.9999999999999" fill="hsl(261, 60%, 38%)" stroke="none"></circle><circle r="4.605263157894737" cx="373.3333333333333" cy="799.9999999999999" fill="hsl(261, 60%, 38%)" stroke="none"></circle><circle r="4.605263157894737" cx="426.66666666666663" cy="799.9999999999999" fill="hsl(261, 60%, 38%)" stroke="none"></circle><circle r="4.605263157894737" cx="479.99999999999994" cy="799.9999999999999" fill="hsl(261, 60%, 38%)" stroke="none"></circle><circle r="4.605263157894737" cx="533.3333333333333" cy="799.9999999999999" fill="hsl(261, 60%, 38%)" stroke="none"></circle><circle r="4.605263157894737" cx="586.6666666666666" cy="799.9999999999999" fill="hsl(261, 60%, 38%)" stroke="none"></circle><circle r="4.605263157894737" cx="640" cy="799.9999999999999" fill="hsl(261, 60%, 38%)" stroke="none"></circle><circle r="4.605263157894737" cx="693.3333333333334" cy="799.9999999999999" fill="hsl(261, 60%, 38%)" stroke="none"></circle><circle r="4.605263157894737" cx="746.6666666666667" cy="799.9999999999999" fill="hsl(261, 60%, 38%)" stroke="none"></circle><circle r="4.605263157894737" cx="800.0000000000001" cy="799.9999999999999" fill="hsl(261, 60%, 38%)" stroke="none"></circle></g></svg>