<svg width="160" height="47" viewBox="0 0 160 47" fill="none" xmlns="http://www.w3.org/2000/svg">
<rect x="0.5" y="0.5" width="159" height="43" rx="7.5" stroke="#013F48"/>
<path d="M40.4003 24.3032C41.1122 24.9862 41.1332 26.1136 40.453 26.8255C39.7707 27.5341 38.6433 27.5578 37.9313 26.8755C37.9138 26.8607 37.8989 26.8431 37.8813 26.8255L33.798 22.7422C33.6629 22.6165 33.4494 22.6219 33.3231 22.757C33.2001 22.886 33.2001 23.088 33.3231 23.217L37.4065 27.2997C38.1009 27.9968 38.0982 29.1276 37.4011 29.822C36.7066 30.5158 35.5819 30.5158 34.8848 29.822L30.9183 25.8562C30.7805 25.7299 30.5698 25.736 30.4441 25.8704C30.3205 25.9994 30.3205 26.2014 30.4441 26.3304L34.41 30.2962C35.1044 31.0231 35.078 32.1707 34.3512 32.8652C33.6277 33.5596 32.4767 33.5332 31.7823 32.8098C31.7242 32.7449 31.6681 32.6774 31.6154 32.6071L32.2862 33.8554C33.5548 34.3296 34.9726 33.6879 35.4468 32.42C35.6259 31.9451 35.6522 31.427 35.5232 30.9346C36.833 31.2777 38.1772 30.4955 38.5197 29.183C38.6284 28.7764 38.6284 28.3454 38.5197 27.9388C39.8295 28.2839 41.1737 27.499 41.5169 26.1899C41.6513 25.6745 41.6162 25.1327 41.4169 24.6403L42.2808 23.7763C45.8961 20.1793 45.9076 14.3329 42.3079 10.7183C38.7075 7.10439 32.8604 7.09224 29.2458 10.692C29.237 10.7007 29.2282 10.7095 29.2221 10.7183L28.4926 11.4451L27.7664 10.7183C24.1606 7.11318 18.3135 7.11318 14.7043 10.7183C11.0986 14.3241 11.0986 20.1705 14.7043 23.7763L17.0801 26.1521L17.3705 25.4928L15.1792 23.3015C11.8517 19.9422 11.8747 14.5234 15.2346 11.1932C18.5716 7.88594 23.9526 7.88594 27.2916 11.1932L28.0184 11.9227L26.05 13.8904C25.0861 14.8395 25.0746 16.3952 26.0264 17.3618C26.9754 18.3251 28.5311 18.3372 29.4977 17.3848C29.5065 17.376 29.5126 17.3706 29.5214 17.3618L31.3081 15.5751C31.4074 15.4725 31.5688 15.4725 31.6715 15.5718C31.6715 15.5751 31.6715 15.5751 31.6715 15.5751L40.4003 24.3032Z" fill="#013F48"/>
<mask id="mask0_2_23" style="mask-type:luminance" maskUnits="userSpaceOnUse" x="26" y="32" width="6" height="6">
<path d="M26.4858 32.4977H31.6737V37.5659H26.4858V32.4977Z" fill="white"/>
</mask>
<g mask="url(#mask0_2_23)">
<path d="M29.6998 37.0478L31.144 35.6036C31.8236 34.8923 31.7972 33.7642 31.0886 33.082C30.3969 32.4227 29.3134 32.4227 28.6217 33.082L27.1775 34.5262C26.4804 35.2233 26.4838 36.3507 27.1809 37.0478C27.878 37.7389 29.0027 37.7389 29.6998 37.0478Z" fill="#013F48"/>
</g>
<path d="M26.7034 34.0513L28.1476 32.6071C28.8271 31.8985 28.8062 30.7677 28.0976 30.0855C27.4066 29.4235 26.3163 29.4235 25.6253 30.0855L24.1811 31.5297C23.5015 32.241 23.5252 33.3691 24.2365 34.0486C24.9282 34.7106 26.0117 34.7106 26.7034 34.0513Z" fill="#013F48"/>
<path d="M23.7066 31.0549L25.1475 29.6114C25.8331 28.9021 25.8095 27.7713 25.1009 27.0918C24.4092 26.4271 23.3196 26.4271 22.6285 27.089L21.1843 28.5333C20.5048 29.2419 20.5251 30.3726 21.2336 31.0549C21.9254 31.7169 23.0149 31.7169 23.7066 31.0549Z" fill="#013F48"/>
<path d="M19.6315 24.0925L18.1873 25.5367C17.5077 26.2487 17.5314 27.3761 18.2406 28.0583C18.9317 28.7203 20.0185 28.7203 20.7096 28.0583L22.1538 26.6148C22.8455 25.9143 22.8367 24.7842 22.1335 24.0925C21.4391 23.4102 20.3259 23.4102 19.6315 24.0925Z" fill="#013F48"/>
<mask id="path-8-inside-1_2_23" fill="white">
<path d="M57.42 6.2C57.38 6.05333 58.0533 5.98 59.44 5.98C60.9733 5.98 61.76 6.10667 61.8 6.36L62.78 14.78L64.9 6.26C64.9667 6.06 65.4867 5.96 66.46 5.96C67.4333 5.96 67.9533 6.05333 68.02 6.24L70.1 14.82L71.26 6.32C71.2867 6.17333 71.5933 6.07333 72.18 6.02C72.7667 5.96667 73.24 5.94 73.6 5.94C75 5.94 75.68 6.03333 75.64 6.22L73.22 19.48C73.1667 19.68 72.7867 19.8267 72.08 19.92C71.3733 20.0133 70.8 20.06 70.36 20.06C68.7067 20.06 67.84 19.8733 67.76 19.5L66.4 14L64.92 19.48C64.8667 19.72 64.4 19.8933 63.52 20C63.0667 20.04 62.6133 20.06 62.16 20.06L60.88 20C60 19.9067 59.5333 19.74 59.48 19.5L57.42 6.2ZM83.5625 11.56C83.8158 11.56 83.9425 12.0267 83.9425 12.96C83.9425 13.24 83.9092 13.5733 83.8425 13.96C83.7892 14.3333 83.6825 14.52 83.5225 14.52H80.9825V16.52H84.6625C84.8892 16.52 85.0425 16.8133 85.1225 17.4C85.1625 17.6533 85.1825 17.9267 85.1825 18.22C85.1825 18.5 85.1425 18.8667 85.0625 19.32C84.9825 19.7733 84.8492 20 84.6625 20H77.8225C77.3158 20 77.0625 19.7933 77.0625 19.38V6.52C77.0625 6.17333 77.2158 6 77.5225 6H84.6825C84.9625 6 85.1025 6.59333 85.1025 7.78C85.1025 8.95333 84.9625 9.54 84.6825 9.54H80.9825V11.56H83.5625ZM86.7258 18.82V6.38C86.7258 6.1 87.3991 5.96 88.7458 5.96C90.1058 5.96 90.7858 6.1 90.7858 6.38V16.18H93.8658C94.1058 16.18 94.2724 16.4933 94.3658 17.12C94.4058 17.4267 94.4258 17.74 94.4258 18.06C94.4258 18.38 94.4058 18.7067 94.3658 19.04C94.2591 19.68 94.0858 20 93.8458 20H87.6858C87.3924 20 87.1591 19.88 86.9858 19.64C86.8124 19.4 86.7258 19.1267 86.7258 18.82ZM101.337 5.82C102.311 5.82 103.164 5.96 103.897 6.24C104.644 6.50667 105.017 6.87333 105.017 7.34C105.017 7.80667 104.837 8.38667 104.477 9.08C104.131 9.76 103.837 10.1 103.597 10.1C103.531 10.1 103.451 10.0667 103.357 10C103.277 9.92 103.077 9.84 102.757 9.76C102.451 9.66667 102.184 9.62 101.957 9.62C101.184 9.62 100.557 9.89333 100.077 10.44C99.6105 10.9867 99.3772 11.8267 99.3772 12.96C99.3772 14.08 99.6172 14.9133 100.097 15.46C100.591 16.0067 101.211 16.28 101.957 16.28C102.264 16.28 102.604 16.24 102.977 16.16C103.364 16.0667 103.637 15.94 103.797 15.78C103.824 15.7533 103.877 15.74 103.957 15.74C104.037 15.74 104.184 15.8933 104.397 16.2C104.624 16.4933 104.831 16.8867 105.017 17.38C105.204 17.86 105.297 18.2333 105.297 18.5C105.297 19.02 104.897 19.4333 104.097 19.74C103.297 20.0467 102.351 20.2 101.257 20.2C99.4972 20.2 98.0505 19.58 96.9172 18.34C95.7839 17.1 95.2172 15.3533 95.2172 13.1C95.2172 10.8333 95.7972 9.05333 96.9572 7.76C98.1305 6.46667 99.5905 5.82 101.337 5.82ZM112.768 20.2C110.901 20.2 109.375 19.5867 108.188 18.36C107.015 17.1333 106.428 15.3467 106.428 13C106.428 10.64 107.021 8.85333 108.208 7.64C109.408 6.42667 110.948 5.82 112.828 5.82C114.721 5.82 116.248 6.42 117.408 7.62C118.568 8.80667 119.148 10.6133 119.148 13.04C119.148 15.4533 118.555 17.2533 117.368 18.44C116.181 19.6133 114.648 20.2 112.768 20.2ZM112.788 9.66C112.148 9.66 111.608 9.95333 111.168 10.54C110.741 11.1267 110.528 11.9533 110.528 13.02C110.528 14.0733 110.735 14.8867 111.148 15.46C111.561 16.02 112.101 16.3 112.768 16.3C113.448 16.3 113.995 16.0133 114.408 15.44C114.835 14.8667 115.048 14.0467 115.048 12.98C115.048 11.9133 114.828 11.0933 114.388 10.52C113.961 9.94667 113.428 9.66 112.788 9.66ZM134.754 20.02C133.567 20.02 132.974 19.8867 132.974 19.62L132.554 11.6L130.114 19.72C130.061 19.88 129.607 19.96 128.754 19.96C127.901 19.96 127.461 19.8867 127.434 19.74L124.914 11.52L124.634 19.5C124.621 19.7 124.367 19.84 123.874 19.92C123.381 19.9867 122.967 20.02 122.634 20.02C122.314 20.02 122.001 20 121.694 19.96C121.054 19.8667 120.741 19.7 120.754 19.46L121.214 6.46C121.214 6.14 122.027 5.98 123.654 5.98C124.134 5.98 124.721 6.02 125.414 6.1C126.107 6.16667 126.494 6.30667 126.574 6.52L128.814 12.82L130.774 6.5C130.894 6.15333 131.814 5.98 133.534 5.98C134.027 5.98 134.614 6.02 135.294 6.1C135.987 6.16667 136.334 6.29333 136.334 6.48L136.914 19.6C136.914 19.7467 136.654 19.8533 136.134 19.92C135.614 19.9867 135.154 20.02 134.754 20.02ZM145.398 11.56C145.652 11.56 145.778 12.0267 145.778 12.96C145.778 13.24 145.745 13.5733 145.678 13.96C145.625 14.3333 145.518 14.52 145.358 14.52H142.818V16.52H146.498C146.725 16.52 146.878 16.8133 146.958 17.4C146.998 17.6533 147.018 17.9267 147.018 18.22C147.018 18.5 146.978 18.8667 146.898 19.32C146.818 19.7733 146.685 20 146.498 20H139.658C139.152 20 138.898 19.7933 138.898 19.38V6.52C138.898 6.17333 139.052 6 139.358 6H146.518C146.798 6 146.938 6.59333 146.938 7.78C146.938 8.95333 146.798 9.54 146.518 9.54H142.818V11.56H145.398ZM67.92 38.042C66.702 38.042 66.044 37.846 65.946 37.454L65.253 34.745H61.914L61.305 37.349C61.221 37.783 60.549 38 59.289 38C58.617 38 58.12 37.965 57.798 37.895C57.476 37.811 57.315 37.748 57.315 37.706L61.032 23.489C61.032 23.377 61.991 23.321 63.909 23.321C65.827 23.321 66.786 23.377 66.786 23.489L70.419 37.727C70.419 37.825 70.097 37.902 69.453 37.958C68.809 38.014 68.298 38.042 67.92 38.042ZM62.439 32.078H64.644L63.699 27.731H63.573L62.439 32.078ZM77.8167 23.111C78.8387 23.111 79.7347 23.258 80.5047 23.552C81.2887 23.832 81.6807 24.217 81.6807 24.707C81.6807 25.197 81.4917 25.806 81.1137 26.534C80.7497 27.248 80.4417 27.605 80.1897 27.605C80.1197 27.605 80.0357 27.57 79.9377 27.5C79.8537 27.416 79.6437 27.332 79.3077 27.248C78.9857 27.15 78.7057 27.101 78.4677 27.101C77.6557 27.101 76.9977 27.388 76.4937 27.962C76.0037 28.536 75.7587 29.418 75.7587 30.608C75.7587 31.784 76.0107 32.659 76.5147 33.233C77.0327 33.807 77.6837 34.094 78.4677 34.094C78.7897 34.094 79.1467 34.052 79.5387 33.968C79.9447 33.87 80.2317 33.737 80.3997 33.569C80.4277 33.541 80.4837 33.527 80.5677 33.527C80.6517 33.527 80.8057 33.688 81.0297 34.01C81.2677 34.318 81.4847 34.731 81.6807 35.249C81.8767 35.753 81.9747 36.145 81.9747 36.425C81.9747 36.971 81.5547 37.405 80.7147 37.727C79.8747 38.049 78.8807 38.21 77.7327 38.21C75.8847 38.21 74.3657 37.559 73.1757 36.257C71.9857 34.955 71.3907 33.121 71.3907 30.755C71.3907 28.375 71.9997 26.506 73.2177 25.148C74.4497 23.79 75.9827 23.111 77.8167 23.111ZM89.5882 23.111C90.6102 23.111 91.5062 23.258 92.2762 23.552C93.0602 23.832 93.4522 24.217 93.4522 24.707C93.4522 25.197 93.2632 25.806 92.8852 26.534C92.5212 27.248 92.2132 27.605 91.9612 27.605C91.8912 27.605 91.8072 27.57 91.7092 27.5C91.6252 27.416 91.4152 27.332 91.0792 27.248C90.7572 27.15 90.4772 27.101 90.2392 27.101C89.4272 27.101 88.7692 27.388 88.2652 27.962C87.7752 28.536 87.5302 29.418 87.5302 30.608C87.5302 31.784 87.7822 32.659 88.2862 33.233C88.8042 33.807 89.4552 34.094 90.2392 34.094C90.5612 34.094 90.9182 34.052 91.3102 33.968C91.7162 33.87 92.0032 33.737 92.1712 33.569C92.1992 33.541 92.2552 33.527 92.3392 33.527C92.4232 33.527 92.5772 33.688 92.8012 34.01C93.0392 34.318 93.2562 34.731 93.4522 35.249C93.6482 35.753 93.7462 36.145 93.7462 36.425C93.7462 36.971 93.3262 37.405 92.4862 37.727C91.6462 38.049 90.6522 38.21 89.5042 38.21C87.6562 38.21 86.1372 37.559 84.9472 36.257C83.7572 34.955 83.1622 33.121 83.1622 30.755C83.1622 28.375 83.7712 26.506 84.9892 25.148C86.2212 23.79 87.7542 23.111 89.5882 23.111ZM101.591 38.21C99.6307 38.21 98.0277 37.566 96.7817 36.278C95.5497 34.99 94.9337 33.114 94.9337 30.65C94.9337 28.172 95.5567 26.296 96.8027 25.022C98.0627 23.748 99.6797 23.111 101.654 23.111C103.642 23.111 105.245 23.741 106.463 25.001C107.681 26.247 108.29 28.144 108.29 30.692C108.29 33.226 107.667 35.116 106.421 36.362C105.175 37.594 103.565 38.21 101.591 38.21ZM101.612 27.143C100.94 27.143 100.373 27.451 99.9107 28.067C99.4627 28.683 99.2387 29.551 99.2387 30.671C99.2387 31.777 99.4557 32.631 99.8897 33.233C100.324 33.821 100.891 34.115 101.591 34.115C102.305 34.115 102.879 33.814 103.313 33.212C103.761 32.61 103.985 31.749 103.985 30.629C103.985 29.509 103.754 28.648 103.292 28.046C102.844 27.444 102.284 27.143 101.612 27.143ZM116.843 23.72C116.843 23.44 117.599 23.3 119.111 23.3C120.637 23.3 121.4 23.44 121.4 23.72V33.359C121.4 34.787 120.889 35.956 119.867 36.866C118.845 37.762 117.431 38.21 115.625 38.21C113.833 38.21 112.37 37.748 111.236 36.824C110.116 35.886 109.556 34.626 109.556 33.044V23.741C109.556 23.461 110.312 23.321 111.824 23.321C113.35 23.321 114.113 23.461 114.113 23.741V33.212C114.113 33.492 114.26 33.716 114.554 33.884C114.862 34.052 115.184 34.136 115.52 34.136C115.856 34.136 116.157 34.059 116.423 33.905C116.703 33.751 116.843 33.52 116.843 33.212V23.72ZM134.67 37.538C134.67 37.832 134.012 37.979 132.696 37.979C131.38 37.979 130.666 37.874 130.554 37.664L127.047 31.112V37.643C127.047 37.895 126.396 38.021 125.094 38.021C123.806 38.021 123.162 37.895 123.162 37.643V23.594C123.162 23.384 123.715 23.279 124.821 23.279C125.255 23.279 125.759 23.321 126.333 23.405C126.921 23.475 127.278 23.615 127.404 23.825L130.764 30.293V23.699C130.764 23.433 131.415 23.3 132.717 23.3C134.019 23.3 134.67 23.433 134.67 23.699V37.538ZM143.1 37.664C143.1 37.944 142.407 38.084 141.021 38.084C139.635 38.084 138.942 37.944 138.942 37.664V27.122H136.422C136.184 27.122 136.016 26.8 135.918 26.156C135.876 25.848 135.855 25.533 135.855 25.211C135.855 24.889 135.876 24.574 135.918 24.266C136.016 23.622 136.184 23.3 136.422 23.3H145.557C145.795 23.3 145.963 23.622 146.061 24.266C146.103 24.574 146.124 24.889 146.124 25.211C146.124 25.533 146.103 25.848 146.061 26.156C145.963 26.8 145.795 27.122 145.557 27.122H143.1V37.664Z"/>
</mask>
<path d="M57.42 6.2C57.38 6.05333 58.0533 5.98 59.44 5.98C60.9733 5.98 61.76 6.10667 61.8 6.36L62.78 14.78L64.9 6.26C64.9667 6.06 65.4867 5.96 66.46 5.96C67.4333 5.96 67.9533 6.05333 68.02 6.24L70.1 14.82L71.26 6.32C71.2867 6.17333 71.5933 6.07333 72.18 6.02C72.7667 5.96667 73.24 5.94 73.6 5.94C75 5.94 75.68 6.03333 75.64 6.22L73.22 19.48C73.1667 19.68 72.7867 19.8267 72.08 19.92C71.3733 20.0133 70.8 20.06 70.36 20.06C68.7067 20.06 67.84 19.8733 67.76 19.5L66.4 14L64.92 19.48C64.8667 19.72 64.4 19.8933 63.52 20C63.0667 20.04 62.6133 20.06 62.16 20.06L60.88 20C60 19.9067 59.5333 19.74 59.48 19.5L57.42 6.2ZM83.5625 11.56C83.8158 11.56 83.9425 12.0267 83.9425 12.96C83.9425 13.24 83.9092 13.5733 83.8425 13.96C83.7892 14.3333 83.6825 14.52 83.5225 14.52H80.9825V16.52H84.6625C84.8892 16.52 85.0425 16.8133 85.1225 17.4C85.1625 17.6533 85.1825 17.9267 85.1825 18.22C85.1825 18.5 85.1425 18.8667 85.0625 19.32C84.9825 19.7733 84.8492 20 84.6625 20H77.8225C77.3158 20 77.0625 19.7933 77.0625 19.38V6.52C77.0625 6.17333 77.2158 6 77.5225 6H84.6825C84.9625 6 85.1025 6.59333 85.1025 7.78C85.1025 8.95333 84.9625 9.54 84.6825 9.54H80.9825V11.56H83.5625ZM86.7258 18.82V6.38C86.7258 6.1 87.3991 5.96 88.7458 5.96C90.1058 5.96 90.7858 6.1 90.7858 6.38V16.18H93.8658C94.1058 16.18 94.2724 16.4933 94.3658 17.12C94.4058 17.4267 94.4258 17.74 94.4258 18.06C94.4258 18.38 94.4058 18.7067 94.3658 19.04C94.2591 19.68 94.0858 20 93.8458 20H87.6858C87.3924 20 87.1591 19.88 86.9858 19.64C86.8124 19.4 86.7258 19.1267 86.7258 18.82ZM101.337 5.82C102.311 5.82 103.164 5.96 103.897 6.24C104.644 6.50667 105.017 6.87333 105.017 7.34C105.017 7.80667 104.837 8.38667 104.477 9.08C104.131 9.76 103.837 10.1 103.597 10.1C103.531 10.1 103.451 10.0667 103.357 10C103.277 9.92 103.077 9.84 102.757 9.76C102.451 9.66667 102.184 9.62 101.957 9.62C101.184 9.62 100.557 9.89333 100.077 10.44C99.6105 10.9867 99.3772 11.8267 99.3772 12.96C99.3772 14.08 99.6172 14.9133 100.097 15.46C100.591 16.0067 101.211 16.28 101.957 16.28C102.264 16.28 102.604 16.24 102.977 16.16C103.364 16.0667 103.637 15.94 103.797 15.78C103.824 15.7533 103.877 15.74 103.957 15.74C104.037 15.74 104.184 15.8933 104.397 16.2C104.624 16.4933 104.831 16.8867 105.017 17.38C105.204 17.86 105.297 18.2333 105.297 18.5C105.297 19.02 104.897 19.4333 104.097 19.74C103.297 20.0467 102.351 20.2 101.257 20.2C99.4972 20.2 98.0505 19.58 96.9172 18.34C95.7839 17.1 95.2172 15.3533 95.2172 13.1C95.2172 10.8333 95.7972 9.05333 96.9572 7.76C98.1305 6.46667 99.5905 5.82 101.337 5.82ZM112.768 20.2C110.901 20.2 109.375 19.5867 108.188 18.36C107.015 17.1333 106.428 15.3467 106.428 13C106.428 10.64 107.021 8.85333 108.208 7.64C109.408 6.42667 110.948 5.82 112.828 5.82C114.721 5.82 116.248 6.42 117.408 7.62C118.568 8.80667 119.148 10.6133 119.148 13.04C119.148 15.4533 118.555 17.2533 117.368 18.44C116.181 19.6133 114.648 20.2 112.768 20.2ZM112.788 9.66C112.148 9.66 111.608 9.95333 111.168 10.54C110.741 11.1267 110.528 11.9533 110.528 13.02C110.528 14.0733 110.735 14.8867 111.148 15.46C111.561 16.02 112.101 16.3 112.768 16.3C113.448 16.3 113.995 16.0133 114.408 15.44C114.835 14.8667 115.048 14.0467 115.048 12.98C115.048 11.9133 114.828 11.0933 114.388 10.52C113.961 9.94667 113.428 9.66 112.788 9.66ZM134.754 20.02C133.567 20.02 132.974 19.8867 132.974 19.62L132.554 11.6L130.114 19.72C130.061 19.88 129.607 19.96 128.754 19.96C127.901 19.96 127.461 19.8867 127.434 19.74L124.914 11.52L124.634 19.5C124.621 19.7 124.367 19.84 123.874 19.92C123.381 19.9867 122.967 20.02 122.634 20.02C122.314 20.02 122.001 20 121.694 19.96C121.054 19.8667 120.741 19.7 120.754 19.46L121.214 6.46C121.214 6.14 122.027 5.98 123.654 5.98C124.134 5.98 124.721 6.02 125.414 6.1C126.107 6.16667 126.494 6.30667 126.574 6.52L128.814 12.82L130.774 6.5C130.894 6.15333 131.814 5.98 133.534 5.98C134.027 5.98 134.614 6.02 135.294 6.1C135.987 6.16667 136.334 6.29333 136.334 6.48L136.914 19.6C136.914 19.7467 136.654 19.8533 136.134 19.92C135.614 19.9867 135.154 20.02 134.754 20.02ZM145.398 11.56C145.652 11.56 145.778 12.0267 145.778 12.96C145.778 13.24 145.745 13.5733 145.678 13.96C145.625 14.3333 145.518 14.52 145.358 14.52H142.818V16.52H146.498C146.725 16.52 146.878 16.8133 146.958 17.4C146.998 17.6533 147.018 17.9267 147.018 18.22C147.018 18.5 146.978 18.8667 146.898 19.32C146.818 19.7733 146.685 20 146.498 20H139.658C139.152 20 138.898 19.7933 138.898 19.38V6.52C138.898 6.17333 139.052 6 139.358 6H146.518C146.798 6 146.938 6.59333 146.938 7.78C146.938 8.95333 146.798 9.54 146.518 9.54H142.818V11.56H145.398ZM67.92 38.042C66.702 38.042 66.044 37.846 65.946 37.454L65.253 34.745H61.914L61.305 37.349C61.221 37.783 60.549 38 59.289 38C58.617 38 58.12 37.965 57.798 37.895C57.476 37.811 57.315 37.748 57.315 37.706L61.032 23.489C61.032 23.377 61.991 23.321 63.909 23.321C65.827 23.321 66.786 23.377 66.786 23.489L70.419 37.727C70.419 37.825 70.097 37.902 69.453 37.958C68.809 38.014 68.298 38.042 67.92 38.042ZM62.439 32.078H64.644L63.699 27.731H63.573L62.439 32.078ZM77.8167 23.111C78.8387 23.111 79.7347 23.258 80.5047 23.552C81.2887 23.832 81.6807 24.217 81.6807 24.707C81.6807 25.197 81.4917 25.806 81.1137 26.534C80.7497 27.248 80.4417 27.605 80.1897 27.605C80.1197 27.605 80.0357 27.57 79.9377 27.5C79.8537 27.416 79.6437 27.332 79.3077 27.248C78.9857 27.15 78.7057 27.101 78.4677 27.101C77.6557 27.101 76.9977 27.388 76.4937 27.962C76.0037 28.536 75.7587 29.418 75.7587 30.608C75.7587 31.784 76.0107 32.659 76.5147 33.233C77.0327 33.807 77.6837 34.094 78.4677 34.094C78.7897 34.094 79.1467 34.052 79.5387 33.968C79.9447 33.87 80.2317 33.737 80.3997 33.569C80.4277 33.541 80.4837 33.527 80.5677 33.527C80.6517 33.527 80.8057 33.688 81.0297 34.01C81.2677 34.318 81.4847 34.731 81.6807 35.249C81.8767 35.753 81.9747 36.145 81.9747 36.425C81.9747 36.971 81.5547 37.405 80.7147 37.727C79.8747 38.049 78.8807 38.21 77.7327 38.21C75.8847 38.21 74.3657 37.559 73.1757 36.257C71.9857 34.955 71.3907 33.121 71.3907 30.755C71.3907 28.375 71.9997 26.506 73.2177 25.148C74.4497 23.79 75.9827 23.111 77.8167 23.111ZM89.5882 23.111C90.6102 23.111 91.5062 23.258 92.2762 23.552C93.0602 23.832 93.4522 24.217 93.4522 24.707C93.4522 25.197 93.2632 25.806 92.8852 26.534C92.5212 27.248 92.2132 27.605 91.9612 27.605C91.8912 27.605 91.8072 27.57 91.7092 27.5C91.6252 27.416 91.4152 27.332 91.0792 27.248C90.7572 27.15 90.4772 27.101 90.2392 27.101C89.4272 27.101 88.7692 27.388 88.2652 27.962C87.7752 28.536 87.5302 29.418 87.5302 30.608C87.5302 31.784 87.7822 32.659 88.2862 33.233C88.8042 33.807 89.4552 34.094 90.2392 34.094C90.5612 34.094 90.9182 34.052 91.3102 33.968C91.7162 33.87 92.0032 33.737 92.1712 33.569C92.1992 33.541 92.2552 33.527 92.3392 33.527C92.4232 33.527 92.5772 33.688 92.8012 34.01C93.0392 34.318 93.2562 34.731 93.4522 35.249C93.6482 35.753 93.7462 36.145 93.7462 36.425C93.7462 36.971 93.3262 37.405 92.4862 37.727C91.6462 38.049 90.6522 38.21 89.5042 38.21C87.6562 38.21 86.1372 37.559 84.9472 36.257C83.7572 34.955 83.1622 33.121 83.1622 30.755C83.1622 28.375 83.7712 26.506 84.9892 25.148C86.2212 23.79 87.7542 23.111 89.5882 23.111ZM101.591 38.21C99.6307 38.21 98.0277 37.566 96.7817 36.278C95.5497 34.99 94.9337 33.114 94.9337 30.65C94.9337 28.172 95.5567 26.296 96.8027 25.022C98.0627 23.748 99.6797 23.111 101.654 23.111C103.642 23.111 105.245 23.741 106.463 25.001C107.681 26.247 108.29 28.144 108.29 30.692C108.29 33.226 107.667 35.116 106.421 36.362C105.175 37.594 103.565 38.21 101.591 38.21ZM101.612 27.143C100.94 27.143 100.373 27.451 99.9107 28.067C99.4627 28.683 99.2387 29.551 99.2387 30.671C99.2387 31.777 99.4557 32.631 99.8897 33.233C100.324 33.821 100.891 34.115 101.591 34.115C102.305 34.115 102.879 33.814 103.313 33.212C103.761 32.61 103.985 31.749 103.985 30.629C103.985 29.509 103.754 28.648 103.292 28.046C102.844 27.444 102.284 27.143 101.612 27.143ZM116.843 23.72C116.843 23.44 117.599 23.3 119.111 23.3C120.637 23.3 121.4 23.44 121.4 23.72V33.359C121.4 34.787 120.889 35.956 119.867 36.866C118.845 37.762 117.431 38.21 115.625 38.21C113.833 38.21 112.37 37.748 111.236 36.824C110.116 35.886 109.556 34.626 109.556 33.044V23.741C109.556 23.461 110.312 23.321 111.824 23.321C113.35 23.321 114.113 23.461 114.113 23.741V33.212C114.113 33.492 114.26 33.716 114.554 33.884C114.862 34.052 115.184 34.136 115.52 34.136C115.856 34.136 116.157 34.059 116.423 33.905C116.703 33.751 116.843 33.52 116.843 33.212V23.72ZM134.67 37.538C134.67 37.832 134.012 37.979 132.696 37.979C131.38 37.979 130.666 37.874 130.554 37.664L127.047 31.112V37.643C127.047 37.895 126.396 38.021 125.094 38.021C123.806 38.021 123.162 37.895 123.162 37.643V23.594C123.162 23.384 123.715 23.279 124.821 23.279C125.255 23.279 125.759 23.321 126.333 23.405C126.921 23.475 127.278 23.615 127.404 23.825L130.764 30.293V23.699C130.764 23.433 131.415 23.3 132.717 23.3C134.019 23.3 134.67 23.433 134.67 23.699V37.538ZM143.1 37.664C143.1 37.944 142.407 38.084 141.021 38.084C139.635 38.084 138.942 37.944 138.942 37.664V27.122H136.422C136.184 27.122 136.016 26.8 135.918 26.156C135.876 25.848 135.855 25.533 135.855 25.211C135.855 24.889 135.876 24.574 135.918 24.266C136.016 23.622 136.184 23.3 136.422 23.3H145.557C145.795 23.3 145.963 23.622 146.061 24.266C146.103 24.574 146.124 24.889 146.124 25.211C146.124 25.533 146.103 25.848 146.061 26.156C145.963 26.8 145.795 27.122 145.557 27.122H143.1V37.664Z" fill="#013F48" stroke="#013F48" stroke-width="2" mask="url(#path-8-inside-1_2_23)"/>
</svg>
