<svg xmlns="http://www.w3.org/2000/svg" width="148" height="47" viewBox="0 0 148 47" fill="none"><rect width="42" height="42" rx="6" fill="#FFD84F"></rect><path d="M33.4003 22.3032C34.1122 22.9862 34.1332 24.1136 33.453 24.8255C32.7707 25.5341 31.6433 25.5578 30.9313 24.8755C30.9138 24.8607 30.8989 24.8431 30.8813 24.8255L26.798 20.7422C26.6629 20.6165 26.4494 20.6219 26.3231 20.757C26.2001 20.886 26.2001 21.088 26.3231 21.217L30.4065 25.2997C31.1009 25.9968 31.0982 27.1276 30.4011 27.822C29.7066 28.5158 28.5819 28.5158 27.8848 27.822L23.9183 23.8562C23.7805 23.7299 23.5698 23.736 23.4441 23.8704C23.3205 23.9994 23.3205 24.2014 23.4441 24.3304L27.41 28.2962C28.1044 29.0231 28.078 30.1707 27.3512 30.8652C26.6277 31.5596 25.4767 31.5332 24.7823 30.8098C24.7242 30.7449 24.6681 30.6774 24.6154 30.6071L25.2862 31.8554C26.5548 32.3296 27.9726 31.6879 28.4468 30.42C28.6259 29.9451 28.6522 29.427 28.5232 28.9346C29.833 29.2777 31.1772 28.4955 31.5197 27.183C31.6284 26.7764 31.6284 26.3454 31.5197 25.9388C32.8295 26.2839 34.1737 25.499 34.5169 24.1899C34.6513 23.6745 34.6162 23.1327 34.4169 22.6403L35.2808 21.7763C38.8961 18.1793 38.9076 12.3329 35.3079 8.7183C31.7075 5.10439 25.8604 5.09224 22.2458 8.69196C22.237 8.70074 22.2282 8.70952 22.2221 8.7183L21.4926 9.44514L20.7664 8.7183C17.1606 5.11318 11.3135 5.11318 7.70435 8.7183C4.09855 12.3241 4.09855 18.1705 7.70435 21.7763L10.0801 24.1521L10.3705 23.4928L8.17923 21.3015C4.85173 17.9422 4.8747 12.5234 8.23462 9.19318C11.5716 5.88594 16.9526 5.88594 20.2916 9.19318L21.0184 9.92272L19.05 11.8904C18.0861 12.8395 18.0746 14.3952 19.0264 15.3618C19.9754 16.3251 21.5311 16.3372 22.4977 15.3848C22.5065 15.376 22.5126 15.3706 22.5214 15.3618L24.3081 13.5751C24.4074 13.4725 24.5688 13.4725 24.6715 13.5718C24.6715 13.5751 24.6715 13.5751 24.6715 13.5751L33.4003 22.3032Z" fill="#013F48"></path><mask id="mask0_4259_267" style="mask-type:luminance" maskUnits="userSpaceOnUse" x="19" y="30" width="6" height="6"><path d="M19.4858 30.4977H24.6737V35.5659H19.4858V30.4977Z" fill="white"></path></mask><g mask="url(#mask0_4259_267)"><path d="M22.6998 35.0478L24.144 33.6036C24.8236 32.8923 24.7972 31.7642 24.0886 31.082C23.3969 30.4227 22.3134 30.4227 21.6217 31.082L20.1775 32.5262C19.4804 33.2233 19.4838 34.3507 20.1809 35.0478C20.878 35.7389 22.0027 35.7389 22.6998 35.0478Z" fill="#013F48"></path></g><path d="M19.7034 32.0513L21.1476 30.6071C21.8271 29.8985 21.8062 28.7677 21.0976 28.0855C20.4066 27.4235 19.3163 27.4235 18.6253 28.0855L17.1811 29.5297C16.5015 30.241 16.5252 31.3691 17.2365 32.0486C17.9282 32.7106 19.0117 32.7106 19.7034 32.0513Z" fill="#013F48"></path><path d="M16.7066 29.0549L18.1475 27.6114C18.8331 26.9021 18.8095 25.7713 18.1009 25.0918C17.4092 24.4271 16.3196 24.4271 15.6285 25.089L14.1843 26.5333C13.5048 27.2419 13.5251 28.3726 14.2336 29.0549C14.9254 29.7169 16.0149 29.7169 16.7066 29.0549Z" fill="#013F48"></path><path d="M12.6315 22.0925L11.1873 23.5367C10.5077 24.2487 10.5314 25.3761 11.2406 26.0583C11.9317 26.7203 13.0185 26.7203 13.7096 26.0583L15.1538 24.6148C15.8455 23.9143 15.8367 22.7842 15.1335 22.0925C14.4391 21.4102 13.3259 21.4102 12.6315 22.0925Z" fill="#013F48"></path><path d="M50.42 6.2C50.38 6.05333 51.0533 5.98 52.44 5.98C53.9733 5.98 54.76 6.10667 54.8 6.36L55.78 14.78L57.9 6.26C57.9667 6.06 58.4867 5.96 59.46 5.96C60.4333 5.96 60.9533 6.05333 61.02 6.24L63.1 14.82L64.26 6.32C64.2867 6.17333 64.5933 6.07333 65.18 6.02C65.7667 5.96667 66.24 5.94 66.6 5.94C68 5.94 68.68 6.03333 68.64 6.22L66.22 19.48C66.1667 19.68 65.7867 19.8267 65.08 19.92C64.3733 20.0133 63.8 20.06 63.36 20.06C61.7067 20.06 60.84 19.8733 60.76 19.5L59.4 14L57.92 19.48C57.8667 19.72 57.4 19.8933 56.52 20C56.0667 20.04 55.6133 20.06 55.16 20.06L53.88 20C53 19.9067 52.5333 19.74 52.48 19.5L50.42 6.2ZM76.5625 11.56C76.8158 11.56 76.9425 12.0267 76.9425 12.96C76.9425 13.24 76.9092 13.5733 76.8425 13.96C76.7892 14.3333 76.6825 14.52 76.5225 14.52H73.9825V16.52H77.6625C77.8892 16.52 78.0425 16.8133 78.1225 17.4C78.1625 17.6533 78.1825 17.9267 78.1825 18.22C78.1825 18.5 78.1425 18.8667 78.0625 19.32C77.9825 19.7733 77.8492 20 77.6625 20H70.8225C70.3158 20 70.0625 19.7933 70.0625 19.38V6.52C70.0625 6.17333 70.2158 6 70.5225 6H77.6825C77.9625 6 78.1025 6.59333 78.1025 7.78C78.1025 8.95333 77.9625 9.54 77.6825 9.54H73.9825V11.56H76.5625ZM79.7258 18.82V6.38C79.7258 6.1 80.3991 5.96 81.7458 5.96C83.1058 5.96 83.7858 6.1 83.7858 6.38V16.18H86.8658C87.1058 16.18 87.2724 16.4933 87.3658 17.12C87.4058 17.4267 87.4258 17.74 87.4258 18.06C87.4258 18.38 87.4058 18.7067 87.3658 19.04C87.2591 19.68 87.0858 20 86.8458 20H80.6858C80.3924 20 80.1591 19.88 79.9858 19.64C79.8124 19.4 79.7258 19.1267 79.7258 18.82ZM94.3372 5.82C95.3105 5.82 96.1639 5.96 96.8972 6.24C97.6439 6.50667 98.0172 6.87333 98.0172 7.34C98.0172 7.80667 97.8372 8.38667 97.4772 9.08C97.1305 9.76 96.8372 10.1 96.5972 10.1C96.5305 10.1 96.4505 10.0667 96.3572 10C96.2772 9.92 96.0772 9.84 95.7572 9.76C95.4505 9.66667 95.1839 9.62 94.9572 9.62C94.1839 9.62 93.5572 9.89333 93.0772 10.44C92.6105 10.9867 92.3772 11.8267 92.3772 12.96C92.3772 14.08 92.6172 14.9133 93.0972 15.46C93.5905 16.0067 94.2105 16.28 94.9572 16.28C95.2639 16.28 95.6039 16.24 95.9772 16.16C96.3639 16.0667 96.6372 15.94 96.7972 15.78C96.8239 15.7533 96.8772 15.74 96.9572 15.74C97.0372 15.74 97.1839 15.8933 97.3972 16.2C97.6239 16.4933 97.8305 16.8867 98.0172 17.38C98.2039 17.86 98.2972 18.2333 98.2972 18.5C98.2972 19.02 97.8972 19.4333 97.0972 19.74C96.2972 20.0467 95.3505 20.2 94.2572 20.2C92.4972 20.2 91.0505 19.58 89.9172 18.34C88.7839 17.1 88.2172 15.3533 88.2172 13.1C88.2172 10.8333 88.7972 9.05333 89.9572 7.76C91.1305 6.46667 92.5905 5.82 94.3372 5.82ZM105.768 20.2C103.901 20.2 102.375 19.5867 101.188 18.36C100.015 17.1333 99.4281 15.3467 99.4281 13C99.4281 10.64 100.021 8.85333 101.208 7.64C102.408 6.42667 103.948 5.82 105.828 5.82C107.721 5.82 109.248 6.42 110.408 7.62C111.568 8.80667 112.148 10.6133 112.148 13.04C112.148 15.4533 111.555 17.2533 110.368 18.44C109.181 19.6133 107.648 20.2 105.768 20.2ZM105.788 9.66C105.148 9.66 104.608 9.95333 104.168 10.54C103.741 11.1267 103.528 11.9533 103.528 13.02C103.528 14.0733 103.735 14.8867 104.148 15.46C104.561 16.02 105.101 16.3 105.768 16.3C106.448 16.3 106.995 16.0133 107.408 15.44C107.835 14.8667 108.048 14.0467 108.048 12.98C108.048 11.9133 107.828 11.0933 107.388 10.52C106.961 9.94667 106.428 9.66 105.788 9.66ZM127.754 20.02C126.567 20.02 125.974 19.8867 125.974 19.62L125.554 11.6L123.114 19.72C123.061 19.88 122.607 19.96 121.754 19.96C120.901 19.96 120.461 19.8867 120.434 19.74L117.914 11.52L117.634 19.5C117.621 19.7 117.367 19.84 116.874 19.92C116.381 19.9867 115.967 20.02 115.634 20.02C115.314 20.02 115.001 20 114.694 19.96C114.054 19.8667 113.741 19.7 113.754 19.46L114.214 6.46C114.214 6.14 115.027 5.98 116.654 5.98C117.134 5.98 117.721 6.02 118.414 6.1C119.107 6.16667 119.494 6.30667 119.574 6.52L121.814 12.82L123.774 6.5C123.894 6.15333 124.814 5.98 126.534 5.98C127.027 5.98 127.614 6.02 128.294 6.1C128.987 6.16667 129.334 6.29333 129.334 6.48L129.914 19.6C129.914 19.7467 129.654 19.8533 129.134 19.92C128.614 19.9867 128.154 20.02 127.754 20.02ZM138.398 11.56C138.652 11.56 138.778 12.0267 138.778 12.96C138.778 13.24 138.745 13.5733 138.678 13.96C138.625 14.3333 138.518 14.52 138.358 14.52H135.818V16.52H139.498C139.725 16.52 139.878 16.8133 139.958 17.4C139.998 17.6533 140.018 17.9267 140.018 18.22C140.018 18.5 139.978 18.8667 139.898 19.32C139.818 19.7733 139.685 20 139.498 20H132.658C132.152 20 131.898 19.7933 131.898 19.38V6.52C131.898 6.17333 132.052 6 132.358 6H139.518C139.798 6 139.938 6.59333 139.938 7.78C139.938 8.95333 139.798 9.54 139.518 9.54H135.818V11.56H138.398ZM60.92 38.042C59.702 38.042 59.044 37.846 58.946 37.454L58.253 34.745H54.914L54.305 37.349C54.221 37.783 53.549 38 52.289 38C51.617 38 51.12 37.965 50.798 37.895C50.476 37.811 50.315 37.748 50.315 37.706L54.032 23.489C54.032 23.377 54.991 23.321 56.909 23.321C58.827 23.321 59.786 23.377 59.786 23.489L63.419 37.727C63.419 37.825 63.097 37.902 62.453 37.958C61.809 38.014 61.298 38.042 60.92 38.042ZM55.439 32.078H57.644L56.699 27.731H56.573L55.439 32.078ZM70.8167 23.111C71.8387 23.111 72.7347 23.258 73.5047 23.552C74.2887 23.832 74.6807 24.217 74.6807 24.707C74.6807 25.197 74.4917 25.806 74.1137 26.534C73.7497 27.248 73.4417 27.605 73.1897 27.605C73.1197 27.605 73.0357 27.57 72.9377 27.5C72.8537 27.416 72.6437 27.332 72.3077 27.248C71.9857 27.15 71.7057 27.101 71.4677 27.101C70.6557 27.101 69.9977 27.388 69.4937 27.962C69.0037 28.536 68.7587 29.418 68.7587 30.608C68.7587 31.784 69.0107 32.659 69.5147 33.233C70.0327 33.807 70.6837 34.094 71.4677 34.094C71.7897 34.094 72.1467 34.052 72.5387 33.968C72.9447 33.87 73.2317 33.737 73.3997 33.569C73.4277 33.541 73.4837 33.527 73.5677 33.527C73.6517 33.527 73.8057 33.688 74.0297 34.01C74.2677 34.318 74.4847 34.731 74.6807 35.249C74.8767 35.753 74.9747 36.145 74.9747 36.425C74.9747 36.971 74.5547 37.405 73.7147 37.727C72.8747 38.049 71.8807 38.21 70.7327 38.21C68.8847 38.21 67.3657 37.559 66.1757 36.257C64.9857 34.955 64.3907 33.121 64.3907 30.755C64.3907 28.375 64.9997 26.506 66.2177 25.148C67.4497 23.79 68.9827 23.111 70.8167 23.111ZM82.5882 23.111C83.6102 23.111 84.5062 23.258 85.2762 23.552C86.0602 23.832 86.4522 24.217 86.4522 24.707C86.4522 25.197 86.2632 25.806 85.8852 26.534C85.5212 27.248 85.2132 27.605 84.9612 27.605C84.8912 27.605 84.8072 27.57 84.7092 27.5C84.6252 27.416 84.4152 27.332 84.0792 27.248C83.7572 27.15 83.4772 27.101 83.2392 27.101C82.4272 27.101 81.7692 27.388 81.2652 27.962C80.7752 28.536 80.5302 29.418 80.5302 30.608C80.5302 31.784 80.7822 32.659 81.2862 33.233C81.8042 33.807 82.4552 34.094 83.2392 34.094C83.5612 34.094 83.9182 34.052 84.3102 33.968C84.7162 33.87 85.0032 33.737 85.1712 33.569C85.1992 33.541 85.2552 33.527 85.3392 33.527C85.4232 33.527 85.5772 33.688 85.8012 34.01C86.0392 34.318 86.2562 34.731 86.4522 35.249C86.6482 35.753 86.7462 36.145 86.7462 36.425C86.7462 36.971 86.3262 37.405 85.4862 37.727C84.6462 38.049 83.6522 38.21 82.5042 38.21C80.6562 38.21 79.1372 37.559 77.9472 36.257C76.7572 34.955 76.1622 33.121 76.1622 30.755C76.1622 28.375 76.7712 26.506 77.9892 25.148C79.2212 23.79 80.7542 23.111 82.5882 23.111ZM94.5907 38.21C92.6307 38.21 91.0277 37.566 89.7817 36.278C88.5497 34.99 87.9337 33.114 87.9337 30.65C87.9337 28.172 88.5567 26.296 89.8027 25.022C91.0627 23.748 92.6797 23.111 94.6537 23.111C96.6417 23.111 98.2447 23.741 99.4627 25.001C100.681 26.247 101.29 28.144 101.29 30.692C101.29 33.226 100.667 35.116 99.4207 36.362C98.1747 37.594 96.5647 38.21 94.5907 38.21ZM94.6117 27.143C93.9397 27.143 93.3727 27.451 92.9107 28.067C92.4627 28.683 92.2387 29.551 92.2387 30.671C92.2387 31.777 92.4557 32.631 92.8897 33.233C93.3237 33.821 93.8907 34.115 94.5907 34.115C95.3047 34.115 95.8787 33.814 96.3127 33.212C96.7607 32.61 96.9847 31.749 96.9847 30.629C96.9847 29.509 96.7537 28.648 96.2917 28.046C95.8437 27.444 95.2837 27.143 94.6117 27.143ZM109.843 23.72C109.843 23.44 110.599 23.3 112.111 23.3C113.637 23.3 114.4 23.44 114.4 23.72V33.359C114.4 34.787 113.889 35.956 112.867 36.866C111.845 37.762 110.431 38.21 108.625 38.21C106.833 38.21 105.37 37.748 104.236 36.824C103.116 35.886 102.556 34.626 102.556 33.044V23.741C102.556 23.461 103.312 23.321 104.824 23.321C106.35 23.321 107.113 23.461 107.113 23.741V33.212C107.113 33.492 107.26 33.716 107.554 33.884C107.862 34.052 108.184 34.136 108.52 34.136C108.856 34.136 109.157 34.059 109.423 33.905C109.703 33.751 109.843 33.52 109.843 33.212V23.72ZM127.67 37.538C127.67 37.832 127.012 37.979 125.696 37.979C124.38 37.979 123.666 37.874 123.554 37.664L120.047 31.112V37.643C120.047 37.895 119.396 38.021 118.094 38.021C116.806 38.021 116.162 37.895 116.162 37.643V23.594C116.162 23.384 116.715 23.279 117.821 23.279C118.255 23.279 118.759 23.321 119.333 23.405C119.921 23.475 120.278 23.615 120.404 23.825L123.764 30.293V23.699C123.764 23.433 124.415 23.3 125.717 23.3C127.019 23.3 127.67 23.433 127.67 23.699V37.538ZM136.1 37.664C136.1 37.944 135.407 38.084 134.021 38.084C132.635 38.084 131.942 37.944 131.942 37.664V27.122H129.422C129.184 27.122 129.016 26.8 128.918 26.156C128.876 25.848 128.855 25.533 128.855 25.211C128.855 24.889 128.876 24.574 128.918 24.266C129.016 23.622 129.184 23.3 129.422 23.3H138.557C138.795 23.3 138.963 23.622 139.061 24.266C139.103 24.574 139.124 24.889 139.124 25.211C139.124 25.533 139.103 25.848 139.061 26.156C138.963 26.8 138.795 27.122 138.557 27.122H136.1V37.664Z" fill="#FFD84F"></path></svg>