<svg width="45" height="45" viewBox="0 0 45 45" fill="none" xmlns="http://www.w3.org/2000/svg">
<circle cx="22.5" cy="22.5" r="22.5" fill="#181818"/>
<path d="M34.4003 25.3032C35.1122 25.9862 35.1332 27.1136 34.453 27.8255C33.7707 28.5341 32.6433 28.5578 31.9313 27.8755C31.9138 27.8607 31.8989 27.8431 31.8813 27.8255L27.798 23.7422C27.6629 23.6165 27.4494 23.6219 27.3231 23.757C27.2001 23.886 27.2001 24.088 27.3231 24.217L31.4065 28.2997C32.1009 28.9968 32.0982 30.1276 31.4011 30.822C30.7066 31.5158 29.5819 31.5158 28.8848 30.822L24.9183 26.8562C24.7805 26.7299 24.5698 26.736 24.4441 26.8704C24.3205 26.9994 24.3205 27.2014 24.4441 27.3304L28.41 31.2962C29.1044 32.0231 29.078 33.1707 28.3512 33.8652C27.6277 34.5596 26.4767 34.5332 25.7823 33.8098C25.7242 33.7449 25.6681 33.6774 25.6154 33.6071L26.2862 34.8554C27.5548 35.3296 28.9726 34.6879 29.4468 33.42C29.6259 32.9451 29.6522 32.427 29.5232 31.9346C30.833 32.2777 32.1772 31.4955 32.5197 30.183C32.6284 29.7764 32.6284 29.3454 32.5197 28.9388C33.8295 29.2839 35.1737 28.499 35.5169 27.1899C35.6513 26.6745 35.6162 26.1327 35.4169 25.6403L36.2808 24.7763C39.8961 21.1793 39.9076 15.3329 36.3079 11.7183C32.7075 8.10439 26.8604 8.09224 23.2458 11.692C23.237 11.7007 23.2282 11.7095 23.2221 11.7183L22.4926 12.4451L21.7664 11.7183C18.1606 8.11318 12.3135 8.11318 8.70435 11.7183C5.09855 15.3241 5.09855 21.1705 8.70435 24.7763L11.0801 27.1521L11.3705 26.4928L9.17923 24.3015C5.85173 20.9422 5.8747 15.5234 9.23462 12.1932C12.5716 8.88594 17.9526 8.88594 21.2916 12.1932L22.0184 12.9227L20.05 14.8904C19.0861 15.8395 19.0746 17.3952 20.0264 18.3618C20.9754 19.3251 22.5311 19.3372 23.4977 18.3848C23.5065 18.376 23.5126 18.3706 23.5214 18.3618L25.3081 16.5751C25.4074 16.4725 25.5688 16.4725 25.6715 16.5718C25.6715 16.5751 25.6715 16.5751 25.6715 16.5751L34.4003 25.3032Z" fill="#013F48"/>
<mask id="mask0_2_3" style="mask-type:luminance" maskUnits="userSpaceOnUse" x="20" y="33" width="6" height="6">
<path d="M20.4858 33.4977H25.6737V38.5659H20.4858V33.4977Z" fill="white"/>
</mask>
<g mask="url(#mask0_2_3)">
<path d="M23.6998 38.0478L25.144 36.6036C25.8236 35.8923 25.7972 34.7642 25.0886 34.082C24.3969 33.4227 23.3134 33.4227 22.6217 34.082L21.1775 35.5262C20.4804 36.2233 20.4838 37.3507 21.1809 38.0478C21.878 38.7389 23.0027 38.7389 23.6998 38.0478Z" fill="#013F48"/>
</g>
<path d="M20.7034 35.0513L22.1476 33.6071C22.8271 32.8985 22.8062 31.7677 22.0976 31.0855C21.4066 30.4235 20.3163 30.4235 19.6253 31.0855L18.1811 32.5297C17.5015 33.241 17.5252 34.3691 18.2365 35.0486C18.9282 35.7106 20.0117 35.7106 20.7034 35.0513Z" fill="#013F48"/>
<path d="M17.7066 32.0549L19.1475 30.6114C19.8331 29.9021 19.8095 28.7713 19.1009 28.0918C18.4092 27.4271 17.3196 27.4271 16.6285 28.089L15.1843 29.5333C14.5048 30.2419 14.5251 31.3726 15.2336 32.0549C15.9254 32.7169 17.0149 32.7169 17.7066 32.0549Z" fill="#013F48"/>
<path d="M13.6315 25.0925L12.1873 26.5367C11.5077 27.2487 11.5314 28.3761 12.2406 29.0583C12.9317 29.7203 14.0185 29.7203 14.7096 29.0583L16.1538 27.6148C16.8455 26.9143 16.8367 25.7842 16.1335 25.0925C15.4391 24.4102 14.3259 24.4102 13.6315 25.0925Z" fill="#013F48"/>
</svg>
