<svg xmlns="http://www.w3.org/2000/svg" version="1.1" xmlns:xlink="http://www.w3.org/1999/xlink" xmlns:svgjs="http://svgjs.dev/svgjs" viewBox="0 0 800 800"><defs><linearGradient x1="50%" y1="0%" x2="50%" y2="100%" id="uundulate-grad"><stop stop-color="hsl(37, 99%, 67%)" stop-opacity="1" offset="45%"></stop><stop stop-color="hsl(316, 73%, 52%)" stop-opacity="1" offset="100%"></stop></linearGradient></defs><g stroke-width="2" stroke="url(#uundulate-grad)" fill="none"><path d="M666.4938364157827 238.57163004941623C699.7774721968855 354.8350423972337 630.844147169453 582.7261027700617 538.7010357310015 661.0499719033528C446.55792429255007 739.3738410366439 307.95519147083553 687.8934399269717 224.20690151121664 614.5262018892122C140.4586115515977 541.1589638514527 104.47326841014518 415.45818958364373 136.7092439248309 308.88722932210567C168.94521943951656 202.31626906056766 268.5677938794254 117.63467581564015 378.9395839817072 102.98559263382987C489.311374083989 88.33650945201958 633.21020063468 122.30821770159878 666.4938364157827 238.57163004941623C699.7774721968855 354.8350423972337 630.844147169453 582.7261027700617 538.7010357310015 661.0499719033528 "></path><path d="M654.3805093454807 245.90929293912671C686.1512525910789 356.8880047256797 620.3512605194388 574.4203805361067 532.3964723281897 649.1840737997027C444.4416841369406 723.9477670632987 312.1390755343948 674.8073841858844 232.19752602748588 604.7750206043866C152.2559765205769 534.7426570228888 117.90633079464499 414.75555431270755 148.67703469502675 313.0287286085122C179.44773859540857 211.3019029043167 274.5420141971397 130.46947298870407 379.89690474931786 116.48625722424885C485.2517953014959 102.50304145979356 622.6097660998826 134.93058115257372 654.3805093454807 245.90929293912671C686.1512525910789 356.8880047256797 620.3512605194388 574.4203805361067 532.3964723281897 649.1840737997027 "></path><path d="M642.2671517576007 253.2469558288372C672.5250024676942 358.94096705412585 609.8583433518465 566.1146583021514 526.0918784077996 637.3181756960523C442.32541346375297 708.5216930899534 316.32292908037607 661.7213284447969 240.18812002617705 595.0238393195609C164.05331097197802 528.326350194325 131.3393626615666 414.05291904177136 160.64479494764453 317.1702278949185C189.95022723372244 220.28753674806575 280.51620399727585 143.30427016176804 380.8541949993503 129.98692181466777C481.1921860014247 116.66957346756755 612.0093010475073 147.5529446035486 642.2671517576007 253.2469558288372C672.5250024676942 358.94096705412585 609.8583433518465 566.1146583021514 526.0918784077996 637.3181756960523 "></path><path d="M630.1537941697206 260.58458820096956C658.8987523443095 360.99389886499375 599.3654261842541 557.808905550618 519.7872844874098 625.452247074824C440.20914279056524 693.09558859903 320.5067826263572 648.6352421861312 248.17871402486816 585.2726275171569C175.8506454233791 521.9100128481828 144.7723945284883 413.35025325325694 172.6125552002623 321.31169666374683C200.45271587203632 229.27314007423672 286.490393797412 156.13903681725384 381.8114852493827 143.48755588750862C477.1325767013534 130.83607495776334 601.408835995132 160.17527753694543 630.1537941697206 260.58458820096956C658.8987523443095 360.99389886499375 599.3654261842541 557.808905550618 519.7872844874098 625.452247074824 "></path><path d="M618.0404365818406 267.92225109068005C645.2725022209247 363.0468611934398 588.8725090166619 549.5031833166628 513.4826905670197 613.5863489711737C438.0928721173776 677.6695146256845 324.6906361723385 635.5491864450437 256.1693080235593 575.5214462323313C187.64797987478022 515.4937060196189 158.20542639540997 412.64761798232075 184.5803154528801 325.45319595015326C210.9552045103502 238.25877391798576 292.46458359754826 168.97383399031781 382.76877549941526 156.98822047792754C473.0729674012823 145.00260696553732 590.8083709427565 172.79764098792032 618.0404365818406 267.92225109068005C645.2725022209247 363.0468611934398 588.8725090166619 549.5031833166628 513.4826905670197 613.5863489711737 "></path><path d="M605.9270789939605 275.2598834628124C631.64625209754 365.0997930043077 578.3795918490696 541.1974305651295 507.1780966466297 601.7204203499452C435.97660144419 662.243410134761 328.87448971831964 622.463100186378 264.1599020222505 565.7702344299274C199.4453143261813 509.0773686734768 171.63845826233165 411.94495219380633 196.54807570549787 329.59466471898156C221.45769314866408 247.24437724415668 298.4387733976845 181.8086006458036 383.7260657494478 170.4888545507684C469.013358101211 159.16910845573318 580.2079058903812 185.41997392131714 605.9270789939605 275.2598834628124C631.64625209754 365.0997930043077 578.3795918490696 541.1974305651295 507.1780966466297 601.7204203499452 "></path><path d="M593.8137214060805 282.5975463525229C618.0200019741553 367.1527553327537 567.8866746814772 532.8917083311742 500.87350272623985 589.854522246295C433.8603307710024 646.8173361614158 333.05834326430085 609.3770444452905 272.15049602094166 556.0190531451018C211.24264877758242 502.6610618449131 185.07149012925333 411.24231692287026 208.51583595811564 333.736164005388C231.96018178697796 256.2300110879057 304.41296319782066 194.64339781886758 384.6833559994802 183.98951914118737C464.9537488011398 173.33564046350716 569.6074408380059 198.04233737229202 593.8137214060805 282.5975463525229C618.0200019741553 367.1527553327537 567.8866746814772 532.8917083311742 500.87350272623985 589.854522246295 "></path><path d="M581.7003638182005 289.9352092422334C604.3937518507706 369.20571766119986 557.3937575138849 524.5859860972189 494.5689088058498 577.9886241426448C431.74406009781467 631.3912621880704 337.24219681028205 596.2909887042031 280.14109001963277 546.267871860276C223.0399832289835 496.244755016349 198.50452199617496 410.53968165193396 220.48359621073342 337.8776632917944C242.46267042529183 265.21564493165477 310.3871529979569 207.4781949919315 385.64064624951266 197.4901837316063C460.8941395010686 187.50217247128109 559.0069757856304 210.6647008232669 581.7003638182005 289.9352092422334C604.3937518507706 369.20571766119986 557.3937575138849 524.5859860972189 494.5689088058498 577.9886241426448 "></path><path d="M569.5870062303205 297.2728416143657C590.7675017273859 371.25864947206776 546.9008403462925 516.2802333456856 488.2643148854597 566.1226955214163C429.62778942462705 615.9651576971469 341.4260503562632 583.2049024455375 288.13168401832394 536.5166600578723C234.83731768038461 489.82841767020705 211.93755386309664 409.83701586341954 232.4513564633512 342.01913206062267C252.9651590636057 274.2012482578257 316.3613427980931 220.3129616474173 386.5979364995452 210.99081780444715C456.8345302009973 201.66867396147694 548.4065107332551 223.28703375666373 569.5870062303205 297.2728416143657C590.7675017273859 371.25864947206776 546.9008403462925 516.2802333456856 488.2643148854597 566.1226955214163 "></path><path d="M557.4736791600186 304.61050450407623C577.1412821215793 373.3116118005138 536.4079536962784 507.9745111117304 481.9597514826479 554.256797417766C427.51154926901745 600.5390837238017 345.6099344198226 570.11884670445 296.1223085345932 526.7654787730467C246.6346826493638 483.4121108416432 225.37061624759644 409.13438059248347 244.41914723354705 346.1606313470291C263.4676782194977 283.1868821015748 322.3355631158074 233.14775882048127 387.55525726715587 224.49148239486607C452.7749514185042 215.83520596925092 537.8060761984577 235.90939720763862 557.4736791600186 304.61050450407623C577.1412821215793 373.3116118005138 536.4079536962784 507.9745111117304 481.9597514826479 554.256797417766 "></path><path d="M545.3602910545604 311.94816739378666C563.5150014806165 375.3645741289598 525.9150060111078 499.6687888777751 475.65512704467983 542.3908993141158C425.3952480782517 585.1130097504563 349.7937574482256 557.0327909633625 304.1128720157062 517.0142974882208C258.4319865831868 476.99580401307924 238.80361759694 408.43174532154717 256.3868769685867 350.30213063343547C273.97013634023347 292.1725159453238 328.3097223983655 245.9825559935452 388.51251699961017 237.99214698528505C448.7153116008549 230.0017379770249 527.2055806285043 248.53176065861356 545.3602910545604 311.94816739378666C563.5150014806165 375.3645741289598 525.9150060111078 499.6687888777751 475.65512704467983 542.3908993141158 "></path><path d="M533.2469182078913 319.2858150247081C549.8887360984427 377.41752119861684 515.4220735847265 491.3630513850309 469.3505178655007 530.5249859516764C423.27896214627503 569.6869205183219 353.97759573541776 543.9467199634859 312.1034507556083 507.2631009446061C270.2293057757988 470.5794819257263 252.23663420507256 407.7290947918218 268.3546219624154 354.44361466105283C284.4726097197583 301.1581345302838 334.2838969397127 258.8173379078201 389.4697919908536 251.49279631691496C444.6556870419945 244.16825472600982 516.60510031734 261.1541088507994 533.2469182078913 319.2858150247081C549.8887360984427 377.41752119861684 515.4220735847265 491.3630513850309 469.3505178655007 530.5249859516764 "></path><path d="M521.1335758788003 326.62347791441863C536.2625012338472 379.4704835270629 504.92917167592327 483.0573291510757 463.0459392038998 518.6590878480262C421.1627067318765 554.2608465449766 358.16146454018804 530.8606642223984 320.0940600130885 497.51191965978046C282.026655485989 464.1631750971625 265.6696813307833 407.02645952088574 280.32239747382226 358.58511394745926C294.9751136168612 310.1437683740329 340.2581019986379 271.652135080884 390.42709749967514 264.9934609073339C440.59609300071236 258.33478673378374 506.00465052375364 273.77647230177433 521.1335758788003 326.62347791441863C536.2625012338472 379.4704835270629 504.92917167592327 483.0573291510757 463.0459392038998 518.6590878480262 "></path><path d="M509.02023354970936 333.96112554534C522.6362663692514 381.5234305967199 494.43626976711994 474.75159165833134 456.74136054229893 506.79317448558686C419.0464513174779 538.8347573128423 362.3453333449583 517.7745932225218 328.0846692705687 487.76072311616565C293.8240051961792 457.74685300980946 279.10272845649405 406.3238089911604 292.2901729852291 362.72659797507663C305.47761751396416 319.1293869589929 346.23230705756316 284.4869169951589 391.3844030084967 278.4941102389638C436.5364989594302 272.50130348276866 495.4042007301673 286.39882049396016 509.02023354970936 333.96112554534C522.6362663692514 381.5234305967199 494.43626976711994 474.75159165833134 456.74136054229893 506.79317448558686 "></path><path d="M496.9068759618293 341.29875791747236C509.0100162458667 383.5763624075878 483.94335259952766 466.44583890679803 450.436766621909 494.9272458643584C416.93018064429026 523.4086528219188 366.5291868909395 504.6885069638562 336.0752632692599 478.0095113137618C305.62133964758027 451.3305156636675 292.53576032341573 405.62114320264607 304.2579332378469 366.86806674390493C315.98010615227804 328.1149902851638 352.2064968576994 297.32168365064473 392.3416932585292 291.9947443118046C432.47688965935896 286.6678049729645 484.803735677792 299.021153427357 496.9068759618293 341.29875791747236C509.0100162458667 383.5763624075878 483.94335259952766 466.44583890679803 450.436766621909 494.9272458643584 "></path><path d="M484.7935183739494 348.63642080718284C495.38376612248203 385.6293247360339 473.4504354319354 458.14011667284285 444.1321727015189 483.06134776070814C414.8139099711026 507.98257884857344 370.71304043692066 491.60245122276876 344.065857267951 468.25833002893614C317.41867409898134 444.9142088351035 305.9687921903374 404.91850793170977 316.22569349046466 371.00956603031136C326.4825947905919 337.10062412891284 358.1806866578356 310.15648082370865 393.29898350856166 305.4954089022236C428.4172803592877 300.8343369807385 474.2032706254166 311.64351687833187 484.7935183739494 348.63642080718284C495.38376612248203 385.6293247360339 473.4504354319354 458.14011667284285 444.1321727015189 483.06134776070814 "></path><path d="M472.6801302684912 355.9740989556824C481.7574854815192 387.68230232326897 462.95748774676485 449.8344096976766 437.82754826355085 471.19546491584697C412.6976087803368 492.5565201340172 374.89686346532375 478.5164107404703 352.05642074906405 458.50716400289946C329.21597803280434 438.4979172653287 319.4017935396809 404.21588791956265 328.1934232255043 375.1510805755068C336.98505291132767 346.086273231451 364.15484594039367 322.9912932555617 394.256243241016 318.99608875143156C424.3576405416384 315.0008842473015 463.6027750554631 324.2658955880958 472.6801302684912 355.9740989556824C481.7574854815192 387.68230232326897 462.95748774676485 449.8344096976766 437.82754826355085 471.19546491584697 "></path><path d="M460.5667879394002 363.3117465866038C468.1312506169236 389.735249392926 452.46458583796164 441.5286722049324 431.5229696019499 459.3295515534076C410.58135336593824 477.13043090188285 379.080732270094 465.43033974059375 360.0470300065443 448.75596745928476C341.01332774299453 432.08159517797577 332.83484066539165 403.5132373898374 340.16119873691116 379.29256460312416C347.4875568084306 355.071891816411 370.12905099931896 335.82607516983654 395.21354874983757 332.4967380830615C420.2980465003562 329.1674009962864 453.0023252618768 336.8882437802817 460.5667879394002 363.3117465866038C468.1312506169236 389.735249392926 452.46458583796164 441.5286722049324 431.5229696019499 459.3295515534076 "></path><path d="M448.4534303515201 370.64939421752524C454.50500049353883 391.78819646258296 441.9716686703693 433.2229347121881 425.21837568155996 447.46363819096825C408.46508269275057 461.7043416697485 383.2645858160752 452.34426874071715 368.0376240052354 439.00477091566995C352.8106621943956 425.6652730906228 346.26787253231333 402.8105868601121 352.1289589895289 383.43404863074153C357.9900454467445 364.05751040137096 376.1032407994552 348.6608570841114 396.17083899987006 345.9973874146914C416.2384372002849 343.3339177452713 442.4018602095015 349.5105919724675 448.4534303515201 370.64939421752524C454.50500049353883 391.78819646258296 441.9716686703693 433.2229347121881 425.21837568155996 447.46363819096825 "></path><path d="M436.34007276364014 377.98704184844667C440.87875037015414 393.84114353224 431.47875150277696 424.9171972194438 418.91378176116996 435.59772482852895C406.34881201956296 446.27825243761407 387.44843936205643 439.2581977408406 376.02821800392655 429.2535743720552C364.6079966457967 419.24895100326984 359.700904399235 402.1079363303868 364.09671924214666 387.5755326583589C368.49253408505837 373.04312898633094 382.07743059959137 361.4956389983863 397.12812924990254 359.49803674632125C412.1788279002137 357.50043449425624 431.8013951571261 362.1329401646534 436.34007276364014 377.98704184844667C440.87875037015414 393.84114353224 431.47875150277696 424.9171972194438 418.91378176116996 435.59772482852895 "></path><path d="M424.2267151757601 385.3246894793681C427.2525002467694 395.89409060189695 420.9858343351847 416.61145972669954 412.60918784077995 423.7318114660896C404.2325413463753 430.8521632054797 391.6322929080376 426.1721267409641 384.0188120026177 419.50237782844044C376.4053310971978 412.83262891591687 373.13393626615664 401.4052858006615 376.06447949476444 391.7170166859762C378.99502272337224 382.028747571291 388.0516203997276 374.33042091266117 398.085419499935 372.99868607795116C408.11921860014246 371.6669512432411 421.20093010475074 374.75528835683923 424.2267151757601 385.3246894793681C427.2525002467694 395.89409060189695 420.9858343351847 416.61145972669954 412.60918784077995 423.7318114660896 "></path><path d="M412.11335758788005 392.6623371102895C413.6262501233847 397.94703767155397 410.49291716759234 408.30572223395524 406.30459392039 411.8658981036503C402.11627067318767 415.4260739733453 395.8161464540188 413.0860557410875 392.00940600130883 409.7511812848257C388.20266554859893 406.4163068285639 386.5669681330783 400.70263527093624 388.0322397473822 395.85850071359357C389.4975113616861 391.01436615625096 394.02581019986377 387.1652028269361 399.0427097499675 386.499335409581C404.05960930007126 385.833467992226 410.60046505237534 387.3776365490251 412.11335758788005 392.6623371102895C413.6262501233847 397.94703767155397 410.49291716759234 408.30572223395524 406.30459392039 411.8658981036503 "></path></g></svg>