<svg width="1274" height="900" viewBox="0 0 1274 900" fill="none" xmlns="http://www.w3.org/2000/svg">
<path d="M76.2647 1.44141H1.5V76.2061M76.2647 1.44141V76.2061M76.2647 1.44141H151.029M76.2647 76.2061H1.5M76.2647 76.2061H151.029M76.2647 76.2061V150.971M1.5 76.2061V150.971M151.029 1.44141V76.2061M151.029 1.44141H225.794M151.029 76.2061H225.794M151.029 76.2061V150.971M225.794 1.44141V76.2061M225.794 1.44141H300.559M225.794 76.2061H300.559M225.794 76.2061V150.971M300.559 1.44141V76.2061M300.559 1.44141H375.324M300.559 76.2061H375.324M300.559 76.2061V150.971M375.324 1.44141V76.2061M375.324 1.44141H450.088M375.324 76.2061H450.088M375.324 76.2061V150.971M450.088 1.44141V76.2061M450.088 1.44141H524.853M450.088 76.2061H524.853M450.088 76.2061V150.971M524.853 1.44141V76.2061M524.853 1.44141H599.618M524.853 76.2061H599.618M524.853 76.2061V150.971M599.618 1.44141V76.2061M599.618 1.44141H674.382M599.618 76.2061H674.382M599.618 76.2061V150.971M674.382 1.44141V76.2061M674.382 1.44141H749.147M674.382 76.2061H749.147M674.382 76.2061V150.971M749.147 1.44141V76.2061M749.147 1.44141H823.912M749.147 76.2061H823.912M749.147 76.2061V150.971M823.912 1.44141V76.2061M823.912 1.44141H898.676M823.912 76.2061H898.676M823.912 76.2061V150.971M898.676 1.44141V76.2061M898.676 1.44141H973.441M898.676 76.2061H973.441M898.676 76.2061V150.971M973.441 1.44141V76.2061M973.441 1.44141H1048.21M973.441 76.2061H1048.21M973.441 76.2061V150.971M1048.21 1.44141V76.2061M1048.21 1.44141H1122.97M1048.21 76.2061H1122.97M1048.21 76.2061V150.971M1122.97 1.44141V76.2061M1122.97 1.44141H1197.74M1122.97 76.2061H1197.74M1122.97 76.2061V150.971M1197.74 1.44141V76.2061M1197.74 1.44141H1272.5V76.2061M1197.74 76.2061H1272.5M1197.74 76.2061V150.971M1272.5 76.2061V150.971M76.2647 150.971H1.5M76.2647 150.971H151.029M76.2647 150.971V225.736M1.5 150.971V225.736M151.029 150.971H225.794M151.029 150.971V225.736M225.794 150.971H300.559M225.794 150.971V225.736M300.559 150.971H375.324M300.559 150.971V225.736M375.324 150.971H450.088M375.324 150.971V225.736M450.088 150.971H524.853M450.088 150.971V225.736M524.853 150.971H599.618M524.853 150.971V225.736M599.618 150.971H674.382M599.618 150.971V225.736M674.382 150.971H749.147M674.382 150.971V225.736M749.147 150.971H823.912M749.147 150.971V225.736M823.912 150.971H898.676M823.912 150.971V225.736M898.676 150.971H973.441M898.676 150.971V225.736M973.441 150.971H1048.21M973.441 150.971V225.736M1048.21 150.971H1122.97M1048.21 150.971V225.736M1122.97 150.971H1197.74M1122.97 150.971V225.736M1197.74 150.971H1272.5M1197.74 150.971V225.736M1272.5 150.971V225.736M76.2647 225.736H1.5M76.2647 225.736H151.029M76.2647 225.736V300.5M1.5 225.736V300.5M151.029 225.736H225.794M151.029 225.736V300.5M225.794 225.736H300.559M225.794 225.736V300.5M300.559 225.736H375.324M300.559 225.736V300.5M375.324 225.736H450.088M375.324 225.736V300.5M450.088 225.736H524.853M450.088 225.736V300.5M524.853 225.736H599.618M524.853 225.736V300.5M599.618 225.736H674.382M599.618 225.736V300.5M674.382 225.736H749.147M674.382 225.736V300.5M749.147 225.736H823.912M749.147 225.736V300.5M823.912 225.736H898.676M823.912 225.736V300.5M898.676 225.736H973.441M898.676 225.736V300.5M973.441 225.736H1048.21M973.441 225.736V300.5M1048.21 225.736H1122.97M1048.21 225.736V300.5M1122.97 225.736H1197.74M1122.97 225.736V300.5M1197.74 225.736H1272.5M1197.74 225.736V300.5M1272.5 225.736V300.5M76.2647 300.5H1.5M76.2647 300.5H151.029M76.2647 300.5V375.265M1.5 300.5V375.265M151.029 300.5H225.794M151.029 300.5V375.265M225.794 300.5H300.559M225.794 300.5V375.265M300.559 300.5H375.324M300.559 300.5V375.265M375.324 300.5H450.088M375.324 300.5V375.265M450.088 300.5H524.853M450.088 300.5V375.265M524.853 300.5H599.618M524.853 300.5V375.265M599.618 300.5H674.382M599.618 300.5V375.265M674.382 300.5H749.147M674.382 300.5V375.265M749.147 300.5H823.912M749.147 300.5V375.265M823.912 300.5H898.676M823.912 300.5V375.265M898.676 300.5H973.441M898.676 300.5V375.265M973.441 300.5H1048.21M973.441 300.5V375.265M1048.21 300.5H1122.97M1048.21 300.5V375.265M1122.97 300.5H1197.74M1122.97 300.5V375.265M1197.74 300.5H1272.5M1197.74 300.5V375.265M1272.5 300.5V375.265M76.2647 375.265H1.5M76.2647 375.265H151.029M76.2647 375.265V450.03M1.5 375.265V450.03M151.029 375.265H225.794M151.029 375.265V450.03M225.794 375.265H300.559M225.794 375.265V450.03M300.559 375.265H375.324M300.559 375.265V450.03M375.324 375.265H450.088M375.324 375.265V450.03M450.088 375.265H524.853M450.088 375.265V450.03M524.853 375.265H599.618M524.853 375.265V450.03M599.618 375.265H674.382M599.618 375.265V450.03M674.382 375.265H749.147M674.382 375.265V450.03M749.147 375.265H823.912M749.147 375.265V450.03M823.912 375.265H898.676M823.912 375.265V450.03M898.676 375.265H973.441M898.676 375.265V450.03M973.441 375.265H1048.21M973.441 375.265V450.03M1048.21 375.265H1122.97M1048.21 375.265V450.03M1122.97 375.265H1197.74M1122.97 375.265V450.03M1197.74 375.265H1272.5M1197.74 375.265V450.03M1272.5 375.265V450.03M76.2647 450.03H1.5M76.2647 450.03H151.029M76.2647 450.03V524.794M1.5 450.03V524.794M151.029 450.03H225.794M151.029 450.03V524.794M225.794 450.03H300.559M225.794 450.03V524.794M300.559 450.03H375.324M300.559 450.03V524.794M375.324 450.03H450.088M375.324 450.03V524.794M450.088 450.03H524.853M450.088 450.03V524.794M524.853 450.03H599.618M524.853 450.03V524.794M599.618 450.03H674.382M599.618 450.03V524.794M674.382 450.03H749.147M674.382 450.03V524.794M749.147 450.03H823.912M749.147 450.03V524.794M823.912 450.03H898.676M823.912 450.03V524.794M898.676 450.03H973.441M898.676 450.03V524.794M973.441 450.03H1048.21M973.441 450.03V524.794M1048.21 450.03H1122.97M1048.21 450.03V524.794M1122.97 450.03H1197.74M1122.97 450.03V524.794M1197.74 450.03H1272.5M1197.74 450.03V524.794M1272.5 450.03V524.794M76.2647 524.794H1.5M76.2647 524.794H151.029M76.2647 524.794V599.559M1.5 524.794V599.559M151.029 524.794H225.794M151.029 524.794V599.559M225.794 524.794H300.559M225.794 524.794V599.559M300.559 524.794H375.324M300.559 524.794V599.559M375.324 524.794H450.088M375.324 524.794V599.559M450.088 524.794H524.853M450.088 524.794V599.559M524.853 524.794H599.618M524.853 524.794V599.559M599.618 524.794H674.382M599.618 524.794V599.559M674.382 524.794H749.147M674.382 524.794V599.559M749.147 524.794H823.912M749.147 524.794V599.559M823.912 524.794H898.676M823.912 524.794V599.559M898.676 524.794H973.441M898.676 524.794V599.559M973.441 524.794H1048.21M973.441 524.794V599.559M1048.21 524.794H1122.97M1048.21 524.794V599.559M1122.97 524.794H1197.74M1122.97 524.794V599.559M1197.74 524.794H1272.5M1197.74 524.794V599.559M1272.5 524.794V599.559M76.2647 599.559H1.5M76.2647 599.559H151.029M76.2647 599.559V674.324M1.5 599.559V674.324M151.029 599.559H225.794M151.029 599.559V674.324M225.794 599.559H300.559M225.794 599.559V674.324M300.559 599.559H375.324M300.559 599.559V674.324M375.324 599.559H450.088M375.324 599.559V674.324M450.088 599.559H524.853M450.088 599.559V674.324M524.853 599.559H599.618M524.853 599.559V674.324M599.618 599.559H674.382M599.618 599.559V674.324M674.382 599.559H749.147M674.382 599.559V674.324M749.147 599.559H823.912M749.147 599.559V674.324M823.912 599.559H898.676M823.912 599.559V674.324M898.676 599.559H973.441M898.676 599.559V674.324M973.441 599.559H1048.21M973.441 599.559V674.324M1048.21 599.559H1122.97M1048.21 599.559V674.324M1122.97 599.559H1197.74M1122.97 599.559V674.324M1197.74 599.559H1272.5M1197.74 599.559V674.324M1272.5 599.559V674.324M76.2647 674.324H1.5M76.2647 674.324H151.029M76.2647 674.324V749.088M1.5 674.324V749.088M151.029 674.324H225.794M151.029 674.324V749.088M225.794 674.324H300.559M225.794 674.324V749.088M300.559 674.324H375.324M300.559 674.324V749.088M375.324 674.324H450.088M375.324 674.324V749.088M450.088 674.324H524.853M450.088 674.324V749.088M524.853 674.324H599.618M524.853 674.324V749.088M599.618 674.324H674.382M599.618 674.324V749.088M674.382 674.324H749.147M674.382 674.324V749.088M749.147 674.324H823.912M749.147 674.324V749.088M823.912 674.324H898.676M823.912 674.324V749.088M898.676 674.324H973.441M898.676 674.324V749.088M973.441 674.324H1048.21M973.441 674.324V749.088M1048.21 674.324H1122.97M1048.21 674.324V749.088M1122.97 674.324H1197.74M1122.97 674.324V749.088M1197.74 674.324H1272.5M1197.74 674.324V749.088M1272.5 674.324V749.088M76.2647 749.088H1.5M76.2647 749.088H151.029M76.2647 749.088V823.853M1.5 749.088V823.853M151.029 749.088H225.794M151.029 749.088V823.853M225.794 749.088H300.559M225.794 749.088V823.853M300.559 749.088H375.324M300.559 749.088V823.853M375.324 749.088H450.088M375.324 749.088V823.853M450.088 749.088H524.853M450.088 749.088V823.853M524.853 749.088H599.618M524.853 749.088V823.853M599.618 749.088H674.382M599.618 749.088V823.853M674.382 749.088H749.147M674.382 749.088V823.853M749.147 749.088H823.912M749.147 749.088V823.853M823.912 749.088H898.676M823.912 749.088V823.853M898.676 749.088H973.441M898.676 749.088V823.853M973.441 749.088H1048.21M973.441 749.088V823.853M1048.21 749.088H1122.97M1048.21 749.088V823.853M1122.97 749.088H1197.74M1122.97 749.088V823.853M1197.74 749.088H1272.5M1197.74 749.088V823.853M1272.5 749.088V823.853M76.2647 823.853H1.5M76.2647 823.853H151.029M76.2647 823.853V898.618M1.5 823.853V898.618H76.2647M151.029 823.853H225.794M151.029 823.853V898.618M225.794 823.853H300.559M225.794 823.853V898.618M300.559 823.853H375.324M300.559 823.853V898.618M375.324 823.853H450.088M375.324 823.853V898.618M450.088 823.853H524.853M450.088 823.853V898.618M524.853 823.853H599.618M524.853 823.853V898.618M599.618 823.853H674.382M599.618 823.853V898.618M674.382 823.853H749.147M674.382 823.853V898.618M749.147 823.853H823.912M749.147 823.853V898.618M823.912 823.853H898.676M823.912 823.853V898.618M898.676 823.853H973.441M898.676 823.853V898.618M973.441 823.853H1048.21M973.441 823.853V898.618M1048.21 823.853H1122.97M1048.21 823.853V898.618M1122.97 823.853H1197.74M1122.97 823.853V898.618M1197.74 823.853H1272.5M1197.74 823.853V898.618M1272.5 823.853V898.618H1197.74M76.2647 898.618H151.029M151.029 898.618H225.794M225.794 898.618H300.559M300.559 898.618H375.324M375.324 898.618H450.088M450.088 898.618H524.853M524.853 898.618H599.618M599.618 898.618H674.382M674.382 898.618H749.147M749.147 898.618H823.912M823.912 898.618H898.676M898.676 898.618H973.441M973.441 898.618H1048.21M1048.21 898.618H1122.97M1122.97 898.618H1197.74" stroke="url(#paint0_radial_8_1366)" stroke-opacity="0.08" stroke-width="1.91704"/>
<defs>
<radialGradient id="paint0_radial_8_1366" cx="0" cy="0" r="1" gradientUnits="userSpaceOnUse" gradientTransform="translate(637 473.993) rotate(90) scale(423.667 636.459)">
<stop stop-color="white"/>
<stop offset="1" stop-color="white" stop-opacity="0"/>
</radialGradient>
</defs>
</svg>
